<svg width="22" height="22" viewBox="0 0 22 22" fill="none" xmlns="http://www.w3.org/2000/svg">
<path d="M7.75127 10.356C8.78219 9.32503 10.5802 9.32503 11.6111 10.356L12.2544 10.9993L13.541 9.71265L12.8977 9.06935C12.0397 8.21039 10.8968 7.73633 9.68118 7.73633C8.46555 7.73633 7.3227 8.21039 6.46465 9.06935L4.53382 10.9993C3.68286 11.8536 3.20508 13.0104 3.20508 14.2163C3.20508 15.4221 3.68286 16.5789 4.53382 17.4332C4.95582 17.856 5.45725 18.1912 6.00926 18.4195C6.56128 18.6479 7.15299 18.7648 7.75036 18.7635C8.34787 18.7649 8.93976 18.648 9.49194 18.4197C10.0441 18.1914 10.5457 17.8562 10.9678 17.4332L11.6111 16.7899L10.3245 15.5033L9.68118 16.1466C9.16842 16.6571 8.47434 16.9437 7.75081 16.9437C7.02728 16.9437 6.3332 16.6571 5.82044 16.1466C5.30952 15.6341 5.02263 14.9399 5.02263 14.2163C5.02263 13.4926 5.30952 12.7984 5.82044 12.2859L7.75127 10.356Z" fill="black"/>
<path d="M10.9678 4.5656L10.3245 5.2089L11.6111 6.49552L12.2544 5.85221C12.7671 5.34174 13.4612 5.05515 14.1847 5.05515C14.9083 5.05515 15.6024 5.34174 16.1151 5.85221C16.626 6.36474 16.9129 7.0589 16.9129 7.78258C16.9129 8.50626 16.626 9.20043 16.1151 9.71296L14.1843 11.6429C13.1534 12.6738 11.3554 12.6738 10.3245 11.6429L9.68114 10.9996L8.39453 12.2862L9.03784 12.9295C9.89588 13.7884 11.0387 14.2625 12.2544 14.2625C13.47 14.2625 14.6129 13.7884 15.4709 12.9295L17.4017 10.9996C18.2527 10.1452 18.7305 8.98845 18.7305 7.78258C18.7305 6.57672 18.2527 5.41998 17.4017 4.5656C16.5478 3.71374 15.3909 3.23535 14.1847 3.23535C12.9786 3.23535 11.8217 3.71374 10.9678 4.5656Z" fill="black"/>
</svg>
