<svg width="19" height="18" viewBox="0 0 19 18" fill="none" xmlns="http://www.w3.org/2000/svg">
<path d="M2 7.5H8V1.5C8 1.10218 8.15804 0.720645 8.43934 0.43934C8.72065 0.158036 9.10218 0 9.5 0C9.89783 0 10.2794 0.158036 10.5607 0.43934C10.842 0.720645 11 1.10218 11 1.5V7.5H17C17.3978 7.5 17.7794 7.65803 18.0607 7.93934C18.342 8.22064 18.5 8.60217 18.5 9C18.5 9.39782 18.342 9.77935 18.0607 10.0607C17.7794 10.342 17.3978 10.5 17 10.5H11V16.5C11 16.8978 10.842 17.2794 10.5607 17.5607C10.2794 17.842 9.89783 18 9.5 18C9.10218 18 8.72065 17.842 8.43934 17.5607C8.15804 17.2794 8 16.8978 8 16.5V10.5H2C1.60218 10.5 1.22064 10.342 0.93934 10.0607C0.658036 9.77935 0.500001 9.39782 0.500001 9C0.500001 8.60217 0.658036 8.22064 0.93934 7.93934C1.22064 7.65803 1.60218 7.5 2 7.5Z" fill="white"/>
</svg>
