<svg width="25" height="25" viewBox="0 0 25 25" fill="none" xmlns="http://www.w3.org/2000/svg">
<g clip-path="url(#clip0_646_2494)">
<path d="M1.00154 6.00918H23.0354C23.301 6.00918 23.5558 5.90366 23.7436 5.71583C23.9314 5.52801 24.0369 5.27326 24.0369 5.00764C24.0369 4.74202 23.9314 4.48727 23.7436 4.29945C23.5558 4.11162 23.301 4.0061 23.0354 4.0061H1.00154C0.735914 4.0061 0.481169 4.11162 0.293344 4.29945C0.105519 4.48727 0 4.74202 0 5.00764C0 5.27326 0.105519 5.52801 0.293344 5.71583C0.481169 5.90366 0.735914 6.00918 1.00154 6.00918Z" fill="#2A3248"/>
<path d="M1.00154 6.00918H23.0354C23.301 6.00918 23.5558 5.90366 23.7436 5.71583C23.9314 5.52801 24.0369 5.27326 24.0369 5.00764C24.0369 4.74202 23.9314 4.48727 23.7436 4.29945C23.5558 4.11162 23.301 4.0061 23.0354 4.0061H1.00154C0.735914 4.0061 0.481169 4.11162 0.293344 4.29945C0.105519 4.48727 0 4.74202 0 5.00764C0 5.27326 0.105519 5.52801 0.293344 5.71583C0.481169 5.90366 0.735914 6.00918 1.00154 6.00918Z" fill="black" fill-opacity="0.2"/>
<path d="M23.0358 9.01392H9.01423C8.74861 9.01392 8.49386 9.11943 8.30604 9.30726C8.11821 9.49508 8.0127 9.74983 8.0127 10.0155C8.0127 10.2811 8.11821 10.5358 8.30604 10.7236C8.49386 10.9115 8.74861 11.017 9.01423 11.017H23.0358C23.3014 11.017 23.5561 10.9115 23.744 10.7236C23.9318 10.5358 24.0373 10.2811 24.0373 10.0155C24.0373 9.74983 23.9318 9.49508 23.744 9.30726C23.5561 9.11943 23.3014 9.01392 23.0358 9.01392Z" fill="#2A3248"/>
<path d="M23.0358 9.01392H9.01423C8.74861 9.01392 8.49386 9.11943 8.30604 9.30726C8.11821 9.49508 8.0127 9.74983 8.0127 10.0155C8.0127 10.2811 8.11821 10.5358 8.30604 10.7236C8.49386 10.9115 8.74861 11.017 9.01423 11.017H23.0358C23.3014 11.017 23.5561 10.9115 23.744 10.7236C23.9318 10.5358 24.0373 10.2811 24.0373 10.0155C24.0373 9.74983 23.9318 9.49508 23.744 9.30726C23.5561 9.11943 23.3014 9.01392 23.0358 9.01392Z" fill="black" fill-opacity="0.2"/>
<path d="M23.0358 19.0291H9.01423C8.74861 19.0291 8.49386 19.1346 8.30604 19.3224C8.11821 19.5102 8.0127 19.765 8.0127 20.0306C8.0127 20.2962 8.11821 20.551 8.30604 20.7388C8.49386 20.9266 8.74861 21.0321 9.01423 21.0321H23.0358C23.3014 21.0321 23.5561 20.9266 23.744 20.7388C23.9318 20.551 24.0373 20.2962 24.0373 20.0306C24.0373 19.765 23.9318 19.5102 23.744 19.3224C23.5561 19.1346 23.3014 19.0291 23.0358 19.0291Z" fill="#2A3248"/>
<path d="M23.0358 19.0291H9.01423C8.74861 19.0291 8.49386 19.1346 8.30604 19.3224C8.11821 19.5102 8.0127 19.765 8.0127 20.0306C8.0127 20.2962 8.11821 20.551 8.30604 20.7388C8.49386 20.9266 8.74861 21.0321 9.01423 21.0321H23.0358C23.3014 21.0321 23.5561 20.9266 23.744 20.7388C23.9318 20.551 24.0373 20.2962 24.0373 20.0306C24.0373 19.765 23.9318 19.5102 23.744 19.3224C23.5561 19.1346 23.3014 19.0291 23.0358 19.0291Z" fill="black" fill-opacity="0.2"/>
<path d="M23.0354 14.0217H1.00154C0.735914 14.0217 0.481169 14.1272 0.293344 14.3151C0.105519 14.5029 0 14.7576 0 15.0233C0 15.2889 0.105519 15.5436 0.293344 15.7315C0.481169 15.9193 0.735914 16.0248 1.00154 16.0248H23.0354C23.301 16.0248 23.5558 15.9193 23.7436 15.7315C23.9314 15.5436 24.0369 15.2889 24.0369 15.0233C24.0369 14.7576 23.9314 14.5029 23.7436 14.3151C23.5558 14.1272 23.301 14.0217 23.0354 14.0217Z" fill="#2A3248"/>
<path d="M23.0354 14.0217H1.00154C0.735914 14.0217 0.481169 14.1272 0.293344 14.3151C0.105519 14.5029 0 14.7576 0 15.0233C0 15.2889 0.105519 15.5436 0.293344 15.7315C0.481169 15.9193 0.735914 16.0248 1.00154 16.0248H23.0354C23.301 16.0248 23.5558 15.9193 23.7436 15.7315C23.9314 15.5436 24.0369 15.2889 24.0369 15.0233C24.0369 14.7576 23.9314 14.5029 23.7436 14.3151C23.5558 14.1272 23.301 14.0217 23.0354 14.0217Z" fill="black" fill-opacity="0.2"/>
</g>
<defs>
<clipPath id="clip0_646_2494">
<rect width="24.0369" height="24.0369" fill="white"/>
</clipPath>
</defs>
</svg>
