<svg width="19" height="19" viewBox="0 0 19 19" fill="none" xmlns="http://www.w3.org/2000/svg">
<g clip-path="url(#clip0_911_2857)">
<path d="M15.5361 0.463461L3.53613 0.445427C2.74048 0.444231 1.97698 0.759154 1.41358 1.32092C0.85018 1.88268 0.533039 2.64527 0.531923 3.44091L0.519293 12.4409C0.518176 13.2366 0.833176 14.0001 1.39499 14.5635C1.95681 15.127 2.71943 15.4442 3.51508 15.4454L5.69008 15.4487L9.02436 18.2759C9.15963 18.3908 9.3312 18.4539 9.50861 18.4542C9.68602 18.4544 9.85778 18.3918 9.99336 18.2774L13.3401 15.4602L15.5151 15.4634C16.3107 15.4646 17.0742 15.1497 17.6376 14.588C18.201 14.0262 18.5182 13.2636 18.5193 12.468L18.5319 3.46797C18.533 2.67232 18.218 1.90878 17.6562 1.34533C17.0944 0.781874 16.3318 0.464657 15.5361 0.463461V0.463461ZM17.0193 12.4657C17.0187 12.8635 16.8601 13.2448 16.5784 13.5257C16.2967 13.8066 15.915 13.964 15.5172 13.9634L13.3422 13.9602C12.9876 13.9598 12.6444 14.0849 12.3734 14.3135L9.51329 16.7219L6.66143 14.3049C6.39068 14.0752 6.04723 13.949 5.69218 13.9487L3.51718 13.9454C3.11936 13.9448 2.73805 13.7862 2.45714 13.5045C2.17623 13.2228 2.01873 12.841 2.01929 12.4432L2.03192 3.44317C2.03248 3.04534 2.19105 2.66405 2.47275 2.38317C2.75445 2.10229 3.1362 1.94483 3.53402 1.94542L15.534 1.96346C15.9318 1.96406 16.3131 2.12267 16.5941 2.40439C16.875 2.68612 17.0325 3.06789 17.0319 3.46571L17.0193 12.4657Z" fill="white"/>
<path d="M5.77914 5.69888L9.52914 5.70451C9.72805 5.70481 9.91893 5.62608 10.0598 5.48564C10.2006 5.3452 10.2799 5.15455 10.2802 4.95564C10.2805 4.75673 10.2017 4.56585 10.0613 4.42498C9.92081 4.28412 9.73016 4.20482 9.53124 4.20452L5.78125 4.19888C5.58234 4.19858 5.39146 4.27731 5.25061 4.41775C5.10976 4.55819 5.03048 4.74884 5.0302 4.94775C5.02992 5.14666 5.10867 5.33755 5.24912 5.47841C5.38958 5.61927 5.58023 5.69858 5.77914 5.69888Z" fill="white"/>
<path d="M13.2764 7.21015L5.77637 7.19888C5.57745 7.19858 5.38658 7.27731 5.24573 7.41775C5.10488 7.55819 5.02559 7.74884 5.02531 7.94775C5.02504 8.14666 5.10379 8.33755 5.24424 8.47841C5.3847 8.61927 5.57535 8.69858 5.77426 8.69888L13.2743 8.71015C13.4732 8.71045 13.664 8.63172 13.8049 8.49128C13.9457 8.35084 14.025 8.16019 14.0253 7.96128C14.0256 7.76237 13.9468 7.57148 13.8064 7.43062C13.6659 7.28976 13.4753 7.21045 13.2764 7.21015Z" fill="white"/>
<path d="M13.2725 10.2102L5.77246 10.1989C5.57355 10.1986 5.38267 10.2773 5.24182 10.4178C5.10097 10.5582 5.02169 10.7488 5.02141 10.9478C5.02113 11.1467 5.09988 11.3376 5.24033 11.4784C5.38079 11.6193 5.57144 11.6986 5.77036 11.6989L13.2703 11.7102C13.4693 11.7105 13.6601 11.6317 13.801 11.4913C13.9418 11.3508 14.0211 11.1602 14.0214 10.9613C14.0217 10.7624 13.9429 10.5715 13.8025 10.4306C13.662 10.2898 13.4714 10.2105 13.2725 10.2102Z" fill="white"/>
</g>
<defs>
<clipPath id="clip0_911_2857">
<rect width="18" height="18" fill="white" transform="matrix(0.999999 0.00150287 -0.00140331 0.999999 0.536133 0.440918)"/>
</clipPath>
</defs>
</svg>
