<svg width="24" height="13" viewBox="0 0 24 13" fill="none" xmlns="http://www.w3.org/2000/svg">
<path d="M12.0001 12.17C11.343 12.1712 10.6922 12.0429 10.0848 11.7923C9.47737 11.5418 8.92528 11.174 8.46009 10.71L0.290094 2.54002C0.10179 2.35172 -0.0039978 2.09632 -0.0039978 1.83002C-0.0039978 1.56372 0.10179 1.30832 0.290094 1.12002C0.478398 0.931716 0.733792 0.825928 1.00009 0.825928C1.2664 0.825928 1.52179 0.931716 1.71009 1.12002L9.88009 9.29002C10.4426 9.85182 11.2051 10.1674 12.0001 10.1674C12.7951 10.1674 13.5576 9.85182 14.1201 9.29002L22.2901 1.12002C22.4784 0.931716 22.7338 0.825928 23.0001 0.825928C23.2664 0.825928 23.5218 0.931716 23.7101 1.12002C23.8984 1.30832 24.0042 1.56372 24.0042 1.83002C24.0042 2.09632 23.8984 2.35172 23.7101 2.54002L15.5401 10.71C15.0749 11.174 14.5228 11.5418 13.9154 11.7923C13.308 12.0429 12.6571 12.1712 12.0001 12.17Z" fill="white"/>
</svg>
