<svg width="42" height="25" viewBox="0 0 42 25" fill="none" xmlns="http://www.w3.org/2000/svg">
<g clip-path="url(#clip0_385_1681)">
<path d="M11.1188 4.06061C10.9547 3.87314 10.7322 3.76782 10.5002 3.76782C10.2682 3.76782 10.0456 3.87314 9.88155 4.06061L4.93168 9.71761C4.84811 9.80986 4.78145 9.9202 4.73559 10.0422C4.68973 10.1642 4.66559 10.2954 4.66458 10.4282C4.66357 10.561 4.68571 10.6927 4.72971 10.8156C4.7737 10.9385 4.83868 11.0501 4.92083 11.144C5.00299 11.2379 5.10068 11.3121 5.20822 11.3624C5.31575 11.4127 5.43097 11.438 5.54715 11.4369C5.66334 11.4357 5.77815 11.4081 5.88491 11.3557C5.99166 11.3033 6.08821 11.2271 6.16893 11.1316L9.62518 7.18161V20.4246C9.62518 20.6898 9.71737 20.9442 9.88146 21.1317C10.0456 21.3193 10.2681 21.4246 10.5002 21.4246C10.7322 21.4246 10.9548 21.3193 11.1189 21.1317C11.283 20.9442 11.3752 20.6898 11.3752 20.4246V7.18161L14.8314 11.1316C14.9965 11.3138 15.2175 11.4146 15.4469 11.4123C15.6763 11.41 15.8958 11.3048 16.058 11.1194C16.2203 10.934 16.3123 10.6832 16.3143 10.421C16.3163 10.1588 16.2281 9.90621 16.0687 9.71761L11.1188 4.06061Z" fill="url(#paint0_linear_385_1681)"/>
</g>
<g clip-path="url(#clip1_385_1681)">
<path d="M30.8812 20.7885C31.0453 20.976 31.2678 21.0813 31.4998 21.0813C31.7318 21.0813 31.9544 20.976 32.1184 20.7885L37.0683 15.1315C37.1519 15.0393 37.2186 14.9289 37.2644 14.8069C37.3103 14.6849 37.3344 14.5537 37.3354 14.4209C37.3364 14.2881 37.3143 14.1565 37.2703 14.0336C37.2263 13.9107 37.1613 13.799 37.0792 13.7051C36.997 13.6112 36.8993 13.537 36.7918 13.4867C36.6842 13.4364 36.569 13.4111 36.4528 13.4123C36.3367 13.4134 36.2218 13.441 36.1151 13.4934C36.0083 13.5458 35.9118 13.622 35.8311 13.7175L32.3748 17.6675V4.42451C32.3748 4.1593 32.2826 3.90494 32.1185 3.71741C31.9544 3.52987 31.7319 3.42451 31.4998 3.42451C31.2678 3.42451 31.0452 3.52987 30.8811 3.71741C30.717 3.90494 30.6248 4.1593 30.6248 4.42451V17.6675L27.1686 13.7175C27.0035 13.5354 26.7825 13.4346 26.5531 13.4368C26.3237 13.4391 26.1042 13.5443 25.942 13.7297C25.7797 13.9151 25.6877 14.1659 25.6857 14.4281C25.6837 14.6903 25.7719 14.9429 25.9313 15.1315L30.8812 20.7885Z" fill="url(#paint1_linear_385_1681)"/>
</g>
<defs>
<linearGradient id="paint0_linear_385_1681" x1="10.4894" y1="3.76782" x2="10.4894" y2="21.4246" gradientUnits="userSpaceOnUse">
<stop stop-color="#30BD58"/>
<stop offset="1" stop-color="#399F63"/>
</linearGradient>
<linearGradient id="paint1_linear_385_1681" x1="31.5106" y1="21.0813" x2="31.5106" y2="3.42451" gradientUnits="userSpaceOnUse">
<stop stop-color="#30BD58"/>
<stop offset="1" stop-color="#399F63"/>
</linearGradient>
<clipPath id="clip0_385_1681">
<rect width="21" height="24" fill="white" transform="translate(0 0.424561)"/>
</clipPath>
<clipPath id="clip1_385_1681">
<rect width="21" height="24" fill="white" transform="matrix(-1 0 0 -1 42 24.4246)"/>
</clipPath>
</defs>
</svg>
