<svg width="13" height="24" viewBox="0 0 13 24" fill="none" xmlns="http://www.w3.org/2000/svg">
<path d="M11.1699 23.9999C11.0383 24.0007 10.9078 23.9754 10.786 23.9257C10.6641 23.8759 10.5533 23.8026 10.4599 23.7099L2.28989 15.5399C1.82426 15.0755 1.45483 14.5237 1.20277 13.9163C0.950701 13.3088 0.820953 12.6576 0.820953 11.9999C0.820953 11.3423 0.950701 10.691 1.20277 10.0836C1.45483 9.47614 1.82426 8.92439 2.28989 8.45993L10.4599 0.289941C10.5531 0.196702 10.6638 0.122742 10.7856 0.0722815C10.9075 0.0218212 11.038 -0.00415039 11.1699 -0.00415039C11.3018 -0.00415039 11.4323 0.0218212 11.5541 0.0722814C11.676 0.122742 11.7867 0.196702 11.8799 0.289941C11.9731 0.383179 12.0471 0.493869 12.0976 0.615691C12.148 0.737513 12.174 0.868081 12.174 0.99994C12.174 1.1318 12.148 1.26237 12.0976 1.38419C12.0471 1.50601 11.9731 1.6167 11.8799 1.70994L3.70989 9.87993C3.14809 10.4424 2.83253 11.2049 2.83253 11.9999C2.83253 12.7949 3.14809 13.5574 3.70989 14.1199L11.8799 22.2899C11.9736 22.3829 12.048 22.4935 12.0988 22.6153C12.1496 22.7372 12.1757 22.8679 12.1757 22.9999C12.1757 23.1319 12.1496 23.2626 12.0988 23.3845C12.048 23.5063 11.9736 23.6169 11.8799 23.7099C11.7865 23.8026 11.6756 23.8759 11.5538 23.9257C11.432 23.9754 11.3015 24.0007 11.1699 23.9999Z" fill="white"/>
</svg>
