<svg width="20" height="22" viewBox="0 0 20 22" fill="none" xmlns="http://www.w3.org/2000/svg">
<path d="M2.06984 19.9096C1.52534 19.9096 1.05938 19.7159 0.671964 19.3285C0.284544 18.9411 0.0905037 18.4748 0.0898438 17.9296V4.06962C0.0898438 3.52512 0.283884 3.05916 0.671964 2.67174C1.06004 2.28432 1.526 2.09028 2.06984 2.08962H6.22784C6.44234 1.49562 6.80138 1.01712 7.30496 0.654119C7.80854 0.291119 8.3735 0.109619 8.99984 0.109619C9.62618 0.109619 10.1915 0.291119 10.6957 0.654119C11.2 1.01712 11.5587 1.49562 11.7718 2.08962H15.9298C16.4743 2.08962 16.9406 2.28366 17.3287 2.67174C17.7168 3.05982 17.9105 3.52578 17.9098 4.06962V10.7026C17.5963 10.5541 17.2746 10.4264 16.9446 10.3195C16.6146 10.2126 16.2763 10.134 15.9298 10.0839V4.06962H2.06984V17.9296H8.05934C8.10884 18.2926 8.18738 18.6391 8.29496 18.9691C8.40254 19.2991 8.53025 19.6126 8.67809 19.9096H2.06984ZM2.06984 16.9396V17.9296V4.06962V10.0839V10.0096V16.9396ZM4.04984 15.9496H8.08409C8.13359 15.6031 8.21213 15.2649 8.31971 14.9349C8.42729 14.6049 8.54675 14.2831 8.67809 13.9696H4.04984V15.9496ZM4.04984 11.9896H10.0888C10.6168 11.4946 11.2069 11.0821 11.859 10.7521C12.511 10.4221 13.208 10.1994 13.9498 10.0839V10.0096H4.04984V11.9896ZM4.04984 8.02962H13.9498V6.04962H4.04984V8.02962ZM8.99984 3.32712C9.21434 3.32712 9.39188 3.25683 9.53246 3.11625C9.67304 2.97567 9.743 2.79846 9.74234 2.58462C9.74168 2.37078 9.67139 2.19357 9.53147 2.05299C9.39155 1.91241 9.21434 1.84212 8.99984 1.84212C8.78534 1.84212 8.60813 1.91241 8.46821 2.05299C8.32829 2.19357 8.258 2.37078 8.25734 2.58462C8.25668 2.79846 8.32697 2.976 8.46821 3.11724C8.60945 3.25848 8.78666 3.32844 8.99984 3.32712ZM14.9398 21.8896C13.5703 21.8896 12.4031 21.4068 11.4382 20.4412C10.4733 19.4757 9.9905 18.3085 9.98984 16.9396C9.98918 15.5708 10.472 14.4036 11.4382 13.438C12.4045 12.4724 13.5717 11.9896 14.9398 11.9896C16.308 11.9896 17.4756 12.4724 18.4425 13.438C19.4094 14.4036 19.8918 15.5708 19.8898 16.9396C19.8879 18.3085 19.4051 19.476 18.4415 20.4422C17.4779 21.4085 16.3107 21.8909 14.9398 21.8896ZM14.4448 19.9096H15.4348V17.4346H17.9098V16.4446H15.4348V13.9696H14.4448V16.4446H11.9698V17.4346H14.4448V19.9096Z" fill="white"/>
</svg>
