<svg width="15" height="14" viewBox="0 0 15 14" fill="none" xmlns="http://www.w3.org/2000/svg">
<path d="M4.68728 2.12748C3.40975 2.88076 2.48134 4.10803 2.10402 5.5423C1.72669 6.97658 1.93098 8.50183 2.67243 9.78626C3.41389 11.0707 4.63253 12.0104 6.06326 12.4009C7.49399 12.7915 9.02106 12.6013 10.3123 11.8717C10.4608 11.7926 10.6342 11.7743 10.7959 11.8206C10.9577 11.8669 11.0951 11.9742 11.1793 12.1199C11.2635 12.2655 11.2878 12.4382 11.2471 12.6015C11.2065 12.7647 11.104 12.9058 10.9613 12.995C9.65245 13.7512 8.13203 14.0582 6.63229 13.869C5.13256 13.6799 3.73595 13.0051 2.65581 11.9476C1.57567 10.8901 0.871363 9.50811 0.650481 8.01272C0.429599 6.51733 0.704281 4.99074 1.43257 3.66614C2.16287 2.33423 3.31093 1.27948 4.69983 0.664435C6.08872 0.0493938 7.64134 -0.0917922 9.1184 0.262637C10.5954 0.617067 11.9149 1.44744 12.8735 2.62577C13.8321 3.8041 14.3765 5.26498 14.4229 6.78325V8.08133C14.4232 8.59681 14.2561 9.09845 13.9468 9.51081C13.6374 9.92316 13.2026 10.2239 12.7076 10.3679C12.2126 10.5118 11.6843 10.4912 11.2021 10.309C10.7198 10.1268 10.3098 9.79303 10.0336 9.35777C9.48471 9.94899 8.74649 10.3298 7.94656 10.4345C7.14662 10.5392 6.33526 10.3611 5.6527 9.93105C4.97014 9.50099 4.45927 8.84597 4.20841 8.07921C3.95755 7.31246 3.98246 6.48215 4.27882 5.73181C4.57408 4.98175 5.12186 4.35825 5.82766 3.96886C6.53346 3.57947 7.35303 3.44862 8.14499 3.59887C8.93695 3.74912 9.65164 4.17105 10.1658 4.79188C10.6799 5.41271 10.9613 6.19351 10.9613 6.9996V8.08133C10.9613 8.36822 11.0753 8.64336 11.2782 8.84623C11.481 9.04909 11.7562 9.16306 12.043 9.16306C12.3299 9.16306 12.6051 9.04909 12.8079 8.84623C13.0108 8.64336 13.1248 8.36822 13.1248 8.08133V6.8845C13.1049 5.90691 12.8305 4.95139 12.3286 4.11219C11.8268 3.27299 11.1149 2.5791 10.2631 2.09895C9.41131 1.61881 8.44908 1.36899 7.47129 1.37415C6.49351 1.3793 5.53396 1.63925 4.68728 2.12835V2.12748ZM9.66324 6.9996C9.66324 6.42581 9.43531 5.87553 9.02958 5.4698C8.62385 5.06407 8.07357 4.83614 7.49978 4.83614C6.926 4.83614 6.37571 5.06407 5.96998 5.4698C5.56426 5.87553 5.33632 6.42581 5.33632 6.9996C5.33632 7.57338 5.56426 8.12367 5.96998 8.5294C6.37571 8.93512 6.926 9.16306 7.49978 9.16306C8.07357 9.16306 8.62385 8.93512 9.02958 8.5294C9.43531 8.12367 9.66324 7.57338 9.66324 6.9996Z" fill="#2A3248"/>
<path d="M4.68728 2.12748C3.40975 2.88076 2.48134 4.10803 2.10402 5.5423C1.72669 6.97658 1.93098 8.50183 2.67243 9.78626C3.41389 11.0707 4.63253 12.0104 6.06326 12.4009C7.49399 12.7915 9.02106 12.6013 10.3123 11.8717C10.4608 11.7926 10.6342 11.7743 10.7959 11.8206C10.9577 11.8669 11.0951 11.9742 11.1793 12.1199C11.2635 12.2655 11.2878 12.4382 11.2471 12.6015C11.2065 12.7647 11.104 12.9058 10.9613 12.995C9.65245 13.7512 8.13203 14.0582 6.63229 13.869C5.13256 13.6799 3.73595 13.0051 2.65581 11.9476C1.57567 10.8901 0.871363 9.50811 0.650481 8.01272C0.429599 6.51733 0.704281 4.99074 1.43257 3.66614C2.16287 2.33423 3.31093 1.27948 4.69983 0.664435C6.08872 0.0493938 7.64134 -0.0917922 9.1184 0.262637C10.5954 0.617067 11.9149 1.44744 12.8735 2.62577C13.8321 3.8041 14.3765 5.26498 14.4229 6.78325V8.08133C14.4232 8.59681 14.2561 9.09845 13.9468 9.51081C13.6374 9.92316 13.2026 10.2239 12.7076 10.3679C12.2126 10.5118 11.6843 10.4912 11.2021 10.309C10.7198 10.1268 10.3098 9.79303 10.0336 9.35777C9.48471 9.94899 8.74649 10.3298 7.94656 10.4345C7.14662 10.5392 6.33526 10.3611 5.6527 9.93105C4.97014 9.50099 4.45927 8.84597 4.20841 8.07921C3.95755 7.31246 3.98246 6.48215 4.27882 5.73181C4.57408 4.98175 5.12186 4.35825 5.82766 3.96886C6.53346 3.57947 7.35303 3.44862 8.14499 3.59887C8.93695 3.74912 9.65164 4.17105 10.1658 4.79188C10.6799 5.41271 10.9613 6.19351 10.9613 6.9996V8.08133C10.9613 8.36822 11.0753 8.64336 11.2782 8.84623C11.481 9.04909 11.7562 9.16306 12.043 9.16306C12.3299 9.16306 12.6051 9.04909 12.8079 8.84623C13.0108 8.64336 13.1248 8.36822 13.1248 8.08133V6.8845C13.1049 5.90691 12.8305 4.95139 12.3286 4.11219C11.8268 3.27299 11.1149 2.5791 10.2631 2.09895C9.41131 1.61881 8.44908 1.36899 7.47129 1.37415C6.49351 1.3793 5.53396 1.63925 4.68728 2.12835V2.12748ZM9.66324 6.9996C9.66324 6.42581 9.43531 5.87553 9.02958 5.4698C8.62385 5.06407 8.07357 4.83614 7.49978 4.83614C6.926 4.83614 6.37571 5.06407 5.96998 5.4698C5.56426 5.87553 5.33632 6.42581 5.33632 6.9996C5.33632 7.57338 5.56426 8.12367 5.96998 8.5294C6.37571 8.93512 6.926 9.16306 7.49978 9.16306C8.07357 9.16306 8.62385 8.93512 9.02958 8.5294C9.43531 8.12367 9.66324 7.57338 9.66324 6.9996Z" fill="black" fill-opacity="0.2"/>
</svg>
