<svg xmlns="http://www.w3.org/2000/svg" viewBox="4730 4998 20 20" width="20" height="20" data-guides="{&quot;vertical&quot;:[],&quot;horizontal&quot;:[]}"><path fill="none" stroke="white" fill-opacity="1" stroke-width="2" stroke-opacity="1" font-size-adjust="none" stroke-linecap="round" stroke-linejoin="round" shape-rendering="crispEdges" id="tSvg1828a5c665d" title="Path 1" d="M 4736 5012 C 4736 5010.333333333333 4736 5008.666666666667 4736 5007M 4740 5012 C 4740 5009.333333333333 4740 5006.666666666667 4740 5004M 4744 5012 C 4744 5011.333333333333 4744 5010.666666666667 4744 5010M 4746 5000 C 4742 5000 4738 5000 4734 5000C 4733.46957 5000 4732.96086 5000.21071 4732.58579 5000.58579C 4732.21071 5000.96086 4732 5001.46957 4732 5002C 4732 5006 4732 5010 4732 5014C 4732 5014.5304 4732.21071 5015.0391 4732.58579 5015.4142C 4732.96086 5015.7893 4733.46957 5016 4734 5016C 4738 5016 4742 5016 4746 5016C 4746.5304 5016 4747.0391 5015.7893 4747.4142 5015.4142C 4747.7893 5015.0391 4748 5014.5304 4748 5014C 4748 5010 4748 5006 4748 5002C 4748 5001.46957 4747.7893 5000.96086 4747.4142 5000.58579C 4747.0391 5000.21071 4746.5304 5000 4746 5000Z"/><defs/></svg>