<svg width="27" height="23" viewBox="0 0 27 23" fill="none" xmlns="http://www.w3.org/2000/svg">
<path d="M7.41986 8.36304C6.92389 8.36304 6.44824 8.56329 6.09753 8.91974C5.74683 9.27619 5.5498 9.75964 5.5498 10.2637C5.5498 10.7678 5.74683 11.2513 6.09753 11.6077C6.44824 11.9642 6.92389 12.1644 7.41986 12.1644C7.91584 12.1644 8.39149 11.9642 8.7422 11.6077C9.0929 11.2513 9.28992 10.7678 9.28992 10.2637C9.28992 9.75964 9.0929 9.27619 8.7422 8.91974C8.39149 8.56329 7.91584 8.36304 7.41986 8.36304ZM13.4041 8.36304C12.9081 8.36304 12.4324 8.56329 12.0817 8.91974C11.731 9.27619 11.534 9.75964 11.534 10.2637C11.534 10.7678 11.731 11.2513 12.0817 11.6077C12.4324 11.9642 12.9081 12.1644 13.4041 12.1644C13.9 12.1644 14.3757 11.9642 14.7264 11.6077C15.0771 11.2513 15.2741 10.7678 15.2741 10.2637C15.2741 9.75964 15.0771 9.27619 14.7264 8.91974C14.3757 8.56329 13.9 8.36304 13.4041 8.36304ZM17.5182 10.2637C17.5182 9.75964 17.7152 9.27619 18.0659 8.91974C18.4166 8.56329 18.8923 8.36304 19.3882 8.36304C19.8842 8.36304 20.3599 8.56329 20.7106 8.91974C21.0613 9.27619 21.2583 9.75964 21.2583 10.2637C21.2583 10.7678 21.0613 11.2513 20.7106 11.6077C20.3599 11.9642 19.8842 12.1644 19.3882 12.1644C18.8923 12.1644 18.4166 11.9642 18.0659 11.6077C17.7152 11.2513 17.5182 10.7678 17.5182 10.2637Z" fill="#6D778A"/>
<path fill-rule="evenodd" clip-rule="evenodd" d="M19.5387 0.901859C15.5084 0.552644 11.4571 0.532305 7.42367 0.841036L7.13494 0.863844C5.28044 1.00609 3.54728 1.85516 2.28254 3.241C1.01779 4.62685 0.314838 6.44716 0.314453 8.3374V21.288C0.314624 21.4852 0.365078 21.6789 0.460891 21.8503C0.556703 22.0217 0.694602 22.165 0.86113 22.2661C1.02766 22.3672 1.21713 22.4227 1.41105 22.4271C1.60497 22.4316 1.79672 22.3849 1.96759 22.2916L7.81713 19.0969C8.08984 18.9479 8.39468 18.87 8.70429 18.8703H22.1328C23.8263 18.8703 25.2775 17.6387 25.5812 15.9463C26.1976 12.5144 26.2455 9.00189 25.7248 5.55326L25.5722 4.536C25.4366 3.63729 25.0076 2.81103 24.3542 2.18999C23.7009 1.56894 22.8611 1.18917 21.9697 1.1117L19.5387 0.901859ZM7.59422 3.1158C11.5081 2.81515 15.4394 2.83447 19.3502 3.17358L21.7797 3.38494C22.5816 3.45488 23.2339 4.07375 23.3551 4.88269L23.5092 5.89842C23.9901 9.09676 23.9446 12.3541 23.3745 15.5373C23.3225 15.8328 23.1696 16.1003 22.9428 16.2928C22.716 16.4852 22.4298 16.5903 22.1343 16.5895H8.70429C8.02443 16.5896 7.3552 16.761 6.75644 17.0882L2.55852 19.3812V8.3374C2.5586 7.02239 3.04742 5.75594 3.92709 4.79164C4.80677 3.82734 6.01237 3.23638 7.30249 3.13708L7.59422 3.1158Z" fill="#6D778A"/>
</svg>
