<svg width="15" height="14" viewBox="0 0 15 14" fill="none" xmlns="http://www.w3.org/2000/svg">
<path d="M13.864 2.75722L9.62132 6.99986L13.864 11.2425C14.1453 11.5238 14.3033 11.9053 14.3033 12.3032C14.3033 12.701 14.1453 13.0825 13.864 13.3638C13.5827 13.6451 13.2011 13.8032 12.8033 13.8032C12.4055 13.8032 12.0239 13.6451 11.7426 13.3638L7.5 9.12118L3.25736 13.3638C2.97606 13.6451 2.59452 13.8032 2.1967 13.8032C1.79887 13.8032 1.41734 13.6451 1.13604 13.3638C0.854735 13.0825 0.6967 12.701 0.6967 12.3032C0.6967 11.9053 0.854735 11.5238 1.13604 11.2425L5.37868 6.99986L1.13604 2.75722C0.854735 2.47592 0.696699 2.09439 0.696699 1.69656C0.696699 1.29874 0.854735 0.917207 1.13604 0.635902C1.41734 0.354597 1.79887 0.196562 2.1967 0.196562C2.59452 0.196562 2.97606 0.354597 3.25736 0.635902L7.5 4.87854L11.7426 0.635902C12.0239 0.354597 12.4055 0.196562 12.8033 0.196562C13.2011 0.196562 13.5827 0.354597 13.864 0.635902C14.1453 0.917207 14.3033 1.29874 14.3033 1.69656C14.3033 2.09439 14.1453 2.47592 13.864 2.75722Z" fill="white"/>
</svg>
