<svg width="24" height="25" viewBox="0 0 24 25" fill="none" xmlns="http://www.w3.org/2000/svg">
<path d="M4 13.5C4 11.1131 4.94821 8.82387 6.63604 7.13604C8.32387 5.44821 10.6131 4.5 13 4.5C15.3869 4.5 17.6761 5.44821 19.364 7.13604C21.0518 8.82387 22 11.1131 22 13.5V19.2263C22 20.1803 22 20.655 21.8583 21.0364C21.7455 21.3386 21.5692 21.613 21.3411 21.8411C21.113 22.0692 20.8386 22.2455 20.5364 22.3583C20.155 22.5 19.6791 22.5 18.7263 22.5H13C10.6131 22.5 8.32387 21.5518 6.63604 19.864C4.94821 18.1761 4 15.8869 4 13.5Z" stroke="white" stroke-width="2"/>
<path d="M9.625 12.375H16.375M13 16.875H16.375" stroke="white" stroke-width="2" stroke-linecap="round" stroke-linejoin="round"/>
</svg>
