<svg width="25" height="24" viewBox="0 0 25 24" fill="none" xmlns="http://www.w3.org/2000/svg">
<path d="M12.6742 0.880371C6.20167 0.880371 0.78125 5.52775 0.78125 11.401C0.78125 14.173 2.02452 16.6595 3.98319 18.5194C3.74504 19.1418 3.40699 19.7211 2.98235 20.2347C2.41954 20.9173 1.7978 21.5492 1.12431 22.1229C0.976583 22.2415 0.869279 22.4029 0.817211 22.585C0.765144 22.7671 0.770879 22.9609 0.833626 23.1396C0.896373 23.3183 1.01304 23.4731 1.16752 23.5827C1.322 23.6923 1.50669 23.7512 1.69609 23.7513C3.72246 23.7513 5.1798 23.7285 6.49899 23.3799C7.67913 23.067 8.69369 22.412 9.72929 21.4926C10.6716 21.7186 11.644 21.9217 12.6742 21.9217C19.1466 21.9217 24.5671 17.2743 24.5671 11.401C24.5671 5.52775 19.1466 0.880371 12.6742 0.880371ZM12.6742 2.71005C18.2775 2.71005 22.7374 6.66215 22.7374 11.401C22.7374 16.1399 18.2775 20.092 12.6742 20.092C11.6779 20.092 10.6432 19.92 9.70093 19.6629C9.55024 19.625 9.39239 19.6262 9.24226 19.6662C9.09212 19.7062 8.95465 19.7838 8.84281 19.8916C7.81362 20.8787 7.05521 21.3389 6.04157 21.607C5.57501 21.7305 4.6748 21.7012 4.03991 21.7506C4.16798 21.606 4.28783 21.5292 4.41225 21.3783C5.13131 20.5 5.78725 19.5714 5.98485 18.5194C6.01207 18.3615 5.99733 18.1991 5.9421 18.0487C5.88687 17.8983 5.79309 17.765 5.67015 17.6622C3.75356 16.0795 2.61093 13.861 2.61093 11.401C2.61093 6.66215 7.07077 2.71005 12.6742 2.71005ZM10.9305 6.28341C10.7694 6.31955 10.6212 6.39858 10.5014 6.51212L9.12915 7.7993L10.3587 9.14228L11.4446 8.11309H13.6457L14.5038 9.08648V10.4304L12.1591 12.0021C12.0338 12.0874 11.9316 12.2026 11.8618 12.3372C11.7921 12.4718 11.7568 12.6217 11.7593 12.7733V14.603H13.589V13.2874L15.9337 11.7157C16.0592 11.6303 16.1614 11.515 16.2312 11.3802C16.301 11.2454 16.3362 11.0954 16.3335 10.9436V8.7425C16.3323 8.52139 16.2511 8.30819 16.1048 8.14236L14.7325 6.59811C14.6471 6.49986 14.5418 6.42097 14.4234 6.36669C14.3051 6.31242 14.1766 6.28403 14.0464 6.28341H11.1299C11.0636 6.27614 10.9968 6.27614 10.9305 6.28341ZM11.7593 15.5178V17.3475H13.589V15.5178H11.7593Z" fill="#6D778A"/>
</svg>
