<svg width="21" height="21" viewBox="0 0 21 21" fill="none" xmlns="http://www.w3.org/2000/svg">
<path d="M4.20844 12.3028H12.137V10.3207H4.20844V12.3028ZM4.20844 9.32959H16.1013V7.34744H4.20844V9.32959ZM4.20844 6.35636H16.1013V4.37421H4.20844V6.35636ZM0.244141 20.2314V2.39206C0.244141 1.84697 0.438391 1.38051 0.826893 0.992665C1.21539 0.604824 1.68186 0.410573 2.22629 0.409912H18.0835C18.6286 0.409912 19.0954 0.604163 19.4839 0.992665C19.8724 1.38117 20.0663 1.84763 20.0656 2.39206V14.285C20.0656 14.8301 19.8717 15.2969 19.4839 15.6854C19.096 16.0739 18.6292 16.2678 18.0835 16.2671H4.20844L0.244141 20.2314ZM3.36603 14.285H18.0835V2.39206H2.22629V15.3999L3.36603 14.285Z" fill="#6D778A"/>
</svg>
