<svg width="19" height="19" viewBox="0 0 19 19" fill="none" xmlns="http://www.w3.org/2000/svg">
<path d="M2.31152 18.6521C1.76152 18.6521 1.29086 18.4564 0.899523 18.0651C0.50819 17.6738 0.31219 17.2028 0.311523 16.6521V2.6521C0.311523 2.1021 0.507524 1.63143 0.899523 1.2401C1.29152 0.848766 1.76219 0.652766 2.31152 0.6521H13.3115L18.3115 5.6521V16.6521C18.3115 17.2021 18.1159 17.6731 17.7245 18.0651C17.3332 18.4571 16.8622 18.6528 16.3115 18.6521H2.31152ZM2.31152 16.6521H16.3115V6.6521H12.3115V2.6521H2.31152V16.6521ZM4.31152 14.6521H14.3115V12.6521H4.31152V14.6521ZM4.31152 6.6521H9.31152V4.6521H4.31152V6.6521ZM4.31152 10.6521H14.3115V8.6521H4.31152V10.6521Z" fill="#6D778A"/>
</svg>
