<svg width="7" height="9" viewBox="0 0 7 9" fill="none" xmlns="http://www.w3.org/2000/svg">
<path d="M5.56414 3.53932H4.84328V1.27246C4.84328 1.02311 4.63926 0.819092 4.38991 0.819092H2.57642C2.32707 0.819092 2.12305 1.02311 2.12305 1.27246V3.53932H1.40219C0.998694 3.53932 0.794677 4.02896 1.0803 4.31458L3.16127 6.39555C3.33809 6.57236 3.62371 6.57236 3.80052 6.39555L5.8815 4.31458C6.16712 4.02896 5.96764 3.53932 5.56414 3.53932ZM0.30957 8.07302C0.30957 8.32237 0.513587 8.52639 0.762941 8.52639H6.20339C6.45274 8.52639 6.65676 8.32237 6.65676 8.07302C6.65676 7.82367 6.45274 7.61965 6.20339 7.61965H0.762941C0.513587 7.61965 0.30957 7.82367 0.30957 8.07302Z" fill="white"/>
</svg>
