<svg width="16" height="8" viewBox="0 0 16 8" fill="none" xmlns="http://www.w3.org/2000/svg">
<path d="M7.9998 7.94664C7.56177 7.94742 7.12787 7.86186 6.72293 7.69485C6.31798 7.52784 5.94993 7.28265 5.6398 6.97331L0.193131 1.52664C0.0675956 1.4011 -0.00292969 1.23084 -0.00292969 1.05331C-0.00292969 0.875771 0.0675956 0.705508 0.193131 0.579972C0.318667 0.454436 0.48893 0.383911 0.666465 0.383911C0.843999 0.383911 1.01426 0.454436 1.1398 0.579972L6.58646 6.02664C6.96147 6.40117 7.4698 6.61155 7.9998 6.61155C8.5298 6.61155 9.03813 6.40117 9.41313 6.02664L14.8598 0.579972C14.9853 0.454436 15.1556 0.383911 15.3331 0.383911C15.5107 0.383911 15.6809 0.454436 15.8065 0.579972C15.932 0.705508 16.0025 0.875771 16.0025 1.05331C16.0025 1.23084 15.932 1.4011 15.8065 1.52664L10.3598 6.97331C10.0497 7.28265 9.68161 7.52784 9.27667 7.69485C8.87172 7.86186 8.43783 7.94742 7.9998 7.94664V7.94664Z" fill="white"/>
</svg>
