<svg width="11" height="12" viewBox="0 0 11 12" fill="none" xmlns="http://www.w3.org/2000/svg">
<path fill-rule="evenodd" clip-rule="evenodd" d="M5.84871 2.69104H2.11214C1.45884 2.69104 0.929688 3.25212 0.929688 3.94326V10.2032C0.929688 10.8949 1.45884 11.4554 2.11214 11.4554H8.61565C9.26896 11.4554 9.79811 10.8949 9.79811 10.2032V5.62117L7.48404 8.07122C7.28196 8.28731 7.01879 8.43663 6.72964 8.49926L5.14455 8.83508C4.1099 9.05384 3.19823 8.08836 3.40516 6.99341L3.72206 5.31491C3.77941 5.0122 3.92012 4.73373 4.12646 4.51557L5.84871 2.69104Z" fill="url(#paint0_linear_389_3018)"/>
<path fill-rule="evenodd" clip-rule="evenodd" d="M10.8891 1.59349C10.8293 1.44216 10.7417 1.30338 10.6307 1.18436C10.5216 1.06797 10.3901 0.974851 10.244 0.910623C10.1002 0.847442 9.94474 0.814819 9.78761 0.814819C9.63048 0.814819 9.47505 0.847442 9.33118 0.910623C9.18515 0.974851 9.05362 1.06797 8.94452 1.18436L8.62171 1.52609L10.3079 3.3116L10.6307 2.96928C10.7428 2.85117 10.8306 2.71215 10.8891 2.56015C11.0109 2.24944 11.0109 1.9042 10.8891 1.59349ZM9.47249 4.19667L7.78571 2.41057L4.96141 5.40218C4.91975 5.44658 4.89164 5.50197 4.88042 5.56181L4.56352 7.2409C4.52213 7.45966 4.70482 7.6524 4.91116 7.60865L6.49683 7.27342C6.55453 7.26056 6.60704 7.2307 6.6476 7.18769L9.47249 4.19667Z" fill="url(#paint1_linear_389_3018)"/>
<defs>
<linearGradient id="paint0_linear_389_3018" x1="5.3639" y1="2.69104" x2="5.3639" y2="11.4554" gradientUnits="userSpaceOnUse">
<stop stop-color="#FF3D60"/>
<stop offset="1" stop-color="#B82D42"/>
</linearGradient>
<linearGradient id="paint1_linear_389_3018" x1="7.76902" y1="0.814819" x2="7.76902" y2="7.61489" gradientUnits="userSpaceOnUse">
<stop stop-color="#FF3D60"/>
<stop offset="1" stop-color="#B82D42"/>
</linearGradient>
</defs>
</svg>
