<svg width="21" height="22" viewBox="0 0 21 22" fill="none" xmlns="http://www.w3.org/2000/svg">
<path d="M10.4993 0.666992C16.2064 0.666992 20.8327 5.29323 20.8327 11.0003C20.8327 16.7074 16.2064 21.3337 10.4993 21.3337C4.79225 21.3337 0.166016 16.7074 0.166016 11.0003C0.166016 5.29323 4.79225 0.666992 10.4993 0.666992ZM10.4993 2.73366C8.30689 2.73366 6.20423 3.60461 4.65393 5.15491C3.10363 6.70521 2.23268 8.80787 2.23268 11.0003C2.23268 13.1928 3.10363 15.2954 4.65393 16.8457C6.20423 18.396 8.30689 19.267 10.4993 19.267C12.6918 19.267 14.7945 18.396 16.3448 16.8457C17.8951 15.2954 18.766 13.1928 18.766 11.0003C18.766 8.80787 17.8951 6.70521 16.3448 5.15491C14.7945 3.60461 12.6918 2.73366 10.4993 2.73366ZM13.3927 12.9192C13.4891 12.822 13.6039 12.7448 13.7303 12.6923C13.8568 12.6398 13.9925 12.613 14.1294 12.6134C14.2663 12.6137 14.4018 12.6413 14.528 12.6945C14.6542 12.7477 14.7686 12.8255 14.8644 12.9233C14.9603 13.0211 15.0358 13.1369 15.0865 13.2641C15.1372 13.3914 15.1621 13.5274 15.1597 13.6643C15.1574 13.8012 15.1279 13.9363 15.0729 14.0617C15.0179 14.1871 14.9385 14.3004 14.8393 14.3948C13.6816 15.5327 12.1226 16.1692 10.4993 16.167C8.87607 16.1692 7.31709 15.5327 6.15935 14.3948C5.96821 14.202 5.86064 13.9417 5.85989 13.6702C5.85914 13.3987 5.96528 13.1378 6.15535 12.944C6.34542 12.7501 6.60415 12.6388 6.87561 12.6342C7.14707 12.6295 7.40945 12.7319 7.60602 12.9192C8.37748 13.6783 9.41707 14.1027 10.4993 14.1003C11.6257 14.1003 12.6456 13.6508 13.3927 12.9192ZM6.88268 6.86699C7.29377 6.86699 7.68802 7.03029 7.9787 7.32098C8.26938 7.61166 8.43268 8.00591 8.43268 8.41699C8.43268 8.82808 8.26938 9.22233 7.9787 9.51301C7.68802 9.80369 7.29377 9.96699 6.88268 9.96699C6.4716 9.96699 6.07735 9.80369 5.78667 9.51301C5.49599 9.22233 5.33268 8.82808 5.33268 8.41699C5.33268 8.00591 5.49599 7.61166 5.78667 7.32098C6.07735 7.03029 6.4716 6.86699 6.88268 6.86699ZM14.116 6.86699C14.5271 6.86699 14.9213 7.03029 15.212 7.32098C15.5027 7.61166 15.666 8.00591 15.666 8.41699C15.666 8.82808 15.5027 9.22233 15.212 9.51301C14.9213 9.80369 14.5271 9.96699 14.116 9.96699C13.7049 9.96699 13.3107 9.80369 13.02 9.51301C12.7293 9.22233 12.566 8.82808 12.566 8.41699C12.566 8.00591 12.7293 7.61166 13.02 7.32098C13.3107 7.03029 13.7049 6.86699 14.116 6.86699Z" fill="white"/>
</svg>
