<svg width="19" height="19" viewBox="0 0 19 19" fill="none" xmlns="http://www.w3.org/2000/svg">
<g clip-path="url(#clip0_1028_2268)">
<path d="M18.2961 7.15488C17.1362 5.26581 14.4978 2.09644 9.86714 2.09644C5.23647 2.09644 2.59807 5.26581 1.43815 7.15488C1.07958 7.73484 0.889648 8.40321 0.889648 9.08507C0.889648 9.76693 1.07958 10.4353 1.43815 11.0153C2.59807 12.9043 5.23647 16.0737 9.86714 16.0737C14.4978 16.0737 17.1362 12.9043 18.2961 11.0153C18.6547 10.4353 18.8446 9.76693 18.8446 9.08507C18.8446 8.40321 18.6547 7.73484 18.2961 7.15488V7.15488ZM17.0211 10.2323C16.0249 11.8521 13.7702 14.578 9.86714 14.578C5.96413 14.578 3.70937 11.8521 2.71323 10.2323C2.5002 9.88754 2.38736 9.49031 2.38736 9.08507C2.38736 8.67983 2.5002 8.2826 2.71323 7.93787C3.70937 6.31803 5.96413 3.59213 9.86714 3.59213C13.7702 3.59213 16.0249 6.31504 17.0211 7.93787C17.2341 8.2826 17.3469 8.67983 17.3469 9.08507C17.3469 9.49031 17.2341 9.88754 17.0211 10.2323V10.2323Z" fill="white"/>
<path d="M9.86717 5.3457C9.12762 5.3457 8.40467 5.56501 7.78976 5.97588C7.17485 6.38675 6.69558 6.97074 6.41256 7.654C6.12955 8.33725 6.0555 9.08909 6.19978 9.81443C6.34406 10.5398 6.70019 11.206 7.22313 11.729C7.74607 12.2519 8.41234 12.6081 9.13768 12.7523C9.86302 12.8966 10.6149 12.8226 11.2981 12.5395C11.9814 12.2565 12.5654 11.7773 12.9762 11.1624C13.3871 10.5474 13.6064 9.82449 13.6064 9.08494C13.6052 8.0936 13.2109 7.1432 12.5099 6.44221C11.8089 5.74123 10.8585 5.34689 9.86717 5.3457V5.3457ZM9.86717 11.3285C9.42344 11.3285 8.98967 11.1969 8.62072 10.9504C8.25177 10.7039 7.96421 10.3535 7.79441 9.94351C7.6246 9.53355 7.58017 9.08245 7.66674 8.64725C7.7533 8.21204 7.96698 7.81228 8.28074 7.49852C8.59451 7.18475 8.99427 6.97107 9.42948 6.88451C9.86468 6.79794 10.3158 6.84237 10.7257 7.01218C11.1357 7.18199 11.4861 7.46955 11.7326 7.8385C11.9791 8.20744 12.1107 8.64121 12.1107 9.08494C12.1107 9.67997 11.8743 10.2506 11.4536 10.6714C11.0328 11.0921 10.4622 11.3285 9.86717 11.3285Z" fill="white"/>
</g>
<defs>
<clipPath id="clip0_1028_2268">
<rect width="17.9483" height="17.9483" fill="white" transform="translate(0.893066 0.11084)"/>
</clipPath>
</defs>
</svg>
