<svg width="22" height="22" viewBox="0 0 22 22" fill="none" xmlns="http://www.w3.org/2000/svg">
<g clip-path="url(#clip0_1028_2189)">
<path d="M21.0375 8.86418C20.2441 7.56508 19.2434 6.40465 18.075 5.42896L20.5357 2.96832C20.6958 2.80257 20.7843 2.58059 20.7823 2.35017C20.7803 2.11975 20.6879 1.89934 20.525 1.7364C20.362 1.57346 20.1416 1.48104 19.9112 1.47904C19.6808 1.47703 19.4588 1.56561 19.293 1.72569L16.6171 4.40515C14.9583 3.41986 13.0618 2.90633 11.1325 2.91998C5.69186 2.91998 2.59146 6.64434 1.22756 8.86418C0.8062 9.5457 0.583008 10.3311 0.583008 11.1324C0.583008 11.9336 0.8062 12.719 1.22756 13.4005C2.0209 14.6997 3.02162 15.8601 4.18999 16.8358L1.72935 19.2964C1.64542 19.3775 1.57847 19.4745 1.53241 19.5817C1.48636 19.6889 1.46211 19.8042 1.4611 19.9209C1.46009 20.0376 1.48232 20.1533 1.52651 20.2613C1.5707 20.3693 1.63595 20.4674 1.71846 20.5499C1.80097 20.6324 1.89909 20.6977 2.0071 20.7419C2.1151 20.7861 2.23082 20.8083 2.3475 20.8073C2.46419 20.8063 2.57951 20.782 2.68672 20.736C2.79394 20.6899 2.89091 20.623 2.97198 20.539L5.65407 17.8569C7.31085 18.8421 9.20502 19.3565 11.1325 19.3448C16.5732 19.3448 19.6736 15.6204 21.0375 13.4005C21.4588 12.719 21.682 11.9336 21.682 11.1324C21.682 10.3311 21.4588 9.5457 21.0375 8.86418V8.86418ZM2.72503 12.4804C2.4747 12.0754 2.3421 11.6086 2.3421 11.1324C2.3421 10.6562 2.4747 10.1894 2.72503 9.78429C3.89735 7.88081 6.54694 4.67758 11.1325 4.67758C12.5916 4.66941 14.0301 5.02105 15.3209 5.70138L13.5518 7.47041C12.7081 6.91026 11.6966 6.65927 10.6889 6.76003C9.68123 6.86078 8.73942 7.30707 8.02332 8.02318C7.30722 8.73928 6.86093 9.68108 6.76017 10.6888C6.65942 11.6965 6.91041 12.708 7.47055 13.5517L5.44053 15.5817C4.36409 14.7115 3.44551 13.6624 2.72503 12.4804V12.4804ZM13.7689 11.1324C13.7689 11.8316 13.4912 12.5022 12.9967 12.9966C12.5023 13.491 11.8317 13.7688 11.1325 13.7688C10.741 13.7673 10.3549 13.6771 10.0033 13.5051L13.5053 10.0031C13.6773 10.3548 13.7674 10.7409 13.7689 11.1324V11.1324ZM8.49611 11.1324C8.49611 10.4332 8.77388 9.76257 9.2683 9.26815C9.76272 8.77373 10.4333 8.49597 11.1325 8.49597C11.524 8.49748 11.9101 8.58762 12.2618 8.75961L8.75975 12.2616C8.58776 11.9099 8.49763 11.5239 8.49611 11.1324ZM19.54 12.4804C18.3677 14.3839 15.7181 17.5872 11.1325 17.5872C9.67347 17.5953 8.2349 17.2437 6.94415 16.5634L8.71318 14.7943C9.55688 15.3545 10.5684 15.6055 11.5761 15.5047C12.5838 15.404 13.5256 14.9577 14.2417 14.2416C14.9578 13.5255 15.4041 12.5837 15.5049 11.576C15.6056 10.5683 15.3546 9.55674 14.7945 8.71303L16.8245 6.683C17.9009 7.55326 18.8195 8.60234 19.54 9.78429C19.7903 10.1894 19.9229 10.6562 19.9229 11.1324C19.9229 11.6086 19.7903 12.0754 19.54 12.4804V12.4804Z" fill="white"/>
</g>
<defs>
<clipPath id="clip0_1028_2189">
<rect width="21.0912" height="21.0912" fill="white" transform="translate(0.586914 0.586914)"/>
</clipPath>
</defs>
</svg>
