<svg width="18" height="20" viewBox="0 0 18 20" fill="none" xmlns="http://www.w3.org/2000/svg">
<path d="M17.1356 4.13365L13.2894 0.2875C13.2179 0.216089 13.1331 0.159463 13.0397 0.120857C12.9463 0.0822506 12.8462 0.0624208 12.7452 0.0625002H5.05288C4.64486 0.0625002 4.25355 0.224588 3.96503 0.513105C3.67651 0.801623 3.51442 1.19294 3.51442 1.60096V3.13942H1.97596C1.56794 3.13942 1.17662 3.30151 0.888105 3.59003C0.599587 3.87855 0.4375 4.26986 0.4375 4.67789V18.524C0.4375 18.9321 0.599587 19.3234 0.888105 19.6119C1.17662 19.9004 1.56794 20.0625 1.97596 20.0625H12.7452C13.1532 20.0625 13.5445 19.9004 13.833 19.6119C14.1216 19.3234 14.2837 18.9321 14.2837 18.524V16.9856H15.8221C16.2301 16.9856 16.6215 16.8235 16.91 16.535C17.1985 16.2465 17.3606 15.8551 17.3606 15.4471V4.67789C17.3607 4.57684 17.3408 4.47677 17.3022 4.38339C17.2636 4.29 17.207 4.20514 17.1356 4.13365ZM9.66827 16.2163H5.05288C4.84887 16.2163 4.65322 16.1353 4.50896 15.991C4.3647 15.8468 4.28365 15.6511 4.28365 15.4471C4.28365 15.2431 4.3647 15.0474 4.50896 14.9032C4.65322 14.7589 4.84887 14.6779 5.05288 14.6779H9.66827C9.87228 14.6779 10.0679 14.7589 10.2122 14.9032C10.3565 15.0474 10.4375 15.2431 10.4375 15.4471C10.4375 15.6511 10.3565 15.8468 10.2122 15.991C10.0679 16.1353 9.87228 16.2163 9.66827 16.2163ZM9.66827 13.1394H5.05288C4.84887 13.1394 4.65322 13.0584 4.50896 12.9141C4.3647 12.7699 4.28365 12.5742 4.28365 12.3702C4.28365 12.1662 4.3647 11.9705 4.50896 11.8263C4.65322 11.682 4.84887 11.601 5.05288 11.601H9.66827C9.87228 11.601 10.0679 11.682 10.2122 11.8263C10.3565 11.9705 10.4375 12.1662 10.4375 12.3702C10.4375 12.5742 10.3565 12.7699 10.2122 12.9141C10.0679 13.0584 9.87228 13.1394 9.66827 13.1394ZM15.8221 15.4471H14.2837V7.75481C14.2837 7.65376 14.2639 7.55369 14.2253 7.46031C14.1867 7.36693 14.1301 7.28207 14.0587 7.21058L10.2125 3.36442C10.141 3.29301 10.0562 3.23639 9.96277 3.19778C9.86939 3.15917 9.76932 3.13934 9.66827 3.13942H5.05288V1.60096H12.4269L15.8221 4.99615V15.4471Z" fill="white"/>
</svg>
