<svg width="23" height="17" viewBox="0 0 23 17" fill="none" xmlns="http://www.w3.org/2000/svg">
<path d="M4.47462 4.51631C4.261 4.51631 4.05612 4.59265 3.90507 4.72853C3.75401 4.86442 3.66915 5.04871 3.66915 5.24088C3.66915 5.43304 3.75401 5.61734 3.90507 5.75322C4.05612 5.8891 4.261 5.96544 4.47462 5.96544H15.7512C15.9648 5.96544 16.1697 5.8891 16.3208 5.75322C16.4718 5.61734 16.5567 5.43304 16.5567 5.24088C16.5567 5.04871 16.4718 4.86442 16.3208 4.72853C16.1697 4.59265 15.9648 4.51631 15.7512 4.51631H4.47462ZM4.47462 7.41456C4.261 7.41456 4.05612 7.4909 3.90507 7.62678C3.75401 7.76266 3.66915 7.94696 3.66915 8.13912V11.0374C3.66915 11.2295 3.75401 11.4138 3.90507 11.5497C4.05612 11.6856 4.261 11.7619 4.47462 11.7619H7.69651C7.91013 11.7619 8.11501 11.6856 8.26606 11.5497C8.41712 11.4138 8.50198 11.2295 8.50198 11.0374V8.13912C8.50198 7.94696 8.41712 7.76266 8.26606 7.62678C8.11501 7.4909 7.91013 7.41456 7.69651 7.41456H4.47462ZM5.28009 10.3128V8.86368H6.89104V10.3128H5.28009ZM10.9184 7.41456C10.7048 7.41456 10.4999 7.4909 10.3488 7.62678C10.1978 7.76266 10.1129 7.94696 10.1129 8.13912C10.1129 8.33129 10.1978 8.51558 10.3488 8.65146C10.4999 8.78734 10.7048 8.86368 10.9184 8.86368H15.7512C15.9648 8.86368 16.1697 8.78734 16.3208 8.65146C16.4718 8.51558 16.5567 8.33129 16.5567 8.13912C16.5567 7.94696 16.4718 7.76266 16.3208 7.62678C16.1697 7.4909 15.9648 7.41456 15.7512 7.41456H10.9184ZM10.9184 10.3128C10.7048 10.3128 10.4999 10.3891 10.3488 10.525C10.1978 10.6609 10.1129 10.8452 10.1129 11.0374C10.1129 11.2295 10.1978 11.4138 10.3488 11.5497C10.4999 11.6856 10.7048 11.7619 10.9184 11.7619H15.7512C15.9648 11.7619 16.1697 11.6856 16.3208 11.5497C16.4718 11.4138 16.5567 11.2295 16.5567 11.0374C16.5567 10.8452 16.4718 10.6609 16.3208 10.525C16.1697 10.3891 15.9648 10.3128 15.7512 10.3128H10.9184ZM0.447266 3.06719C0.447266 2.29853 0.786713 1.56135 1.39093 1.01782C1.99515 0.474295 2.81465 0.168945 3.66915 0.168945H16.5567C17.4112 0.168945 18.2307 0.474295 18.8349 1.01782C19.4391 1.56135 19.7786 2.29853 19.7786 3.06719C20.6331 3.06719 21.4526 3.37254 22.0568 3.91607C22.661 4.45959 23.0005 5.19677 23.0005 5.96544V12.4865C23.0005 13.4473 22.5762 14.3688 21.8209 15.0482C21.0656 15.7276 20.0412 16.1093 18.9731 16.1093H4.47462C3.4065 16.1093 2.38213 15.7276 1.62685 15.0482C0.871575 14.3688 0.447266 13.4473 0.447266 12.4865V3.06719ZM18.9731 12.4865C18.7595 12.4865 18.5546 12.4102 18.4036 12.2743C18.2525 12.1384 18.1676 11.9541 18.1676 11.7619V3.06719C18.1676 2.68286 17.9979 2.31427 17.6958 2.04251C17.3937 1.77074 16.9839 1.61807 16.5567 1.61807H3.66915C3.2419 1.61807 2.83215 1.77074 2.53004 2.04251C2.22793 2.31427 2.05821 2.68286 2.05821 3.06719V12.4865C2.05821 13.063 2.31279 13.6159 2.76596 14.0235C3.21913 14.4312 3.83375 14.6602 4.47462 14.6602H18.9731C19.614 14.6602 20.2286 14.4312 20.6818 14.0235C21.1349 13.6159 21.3895 13.063 21.3895 12.4865V5.96544C21.3895 5.58111 21.2198 5.21252 20.9177 4.94075C20.6156 4.66899 20.2058 4.51631 19.7786 4.51631V11.7619C19.7786 11.9541 19.6937 12.1384 19.5427 12.2743C19.3916 12.4102 19.1867 12.4865 18.9731 12.4865Z" fill="#6D778A"/>
</svg>
