<svg width="19" height="13" viewBox="0 0 19 13" fill="none" xmlns="http://www.w3.org/2000/svg">
<path d="M17.375 10.8745H6.87501C6.65199 10.8748 6.43748 10.9602 6.27531 11.1133C6.11314 11.2664 6.01555 11.4756 6.00248 11.6982C5.98941 11.9209 6.06185 12.1401 6.20499 12.3111C6.34813 12.4821 6.55117 12.592 6.77263 12.6184L6.87501 12.6245H17.375C17.598 12.6243 17.8125 12.5389 17.9747 12.3858C18.1369 12.2327 18.2345 12.0234 18.2475 11.8008C18.2606 11.5782 18.1882 11.3589 18.045 11.1879C17.9019 11.0169 17.6988 10.907 17.4774 10.8806L17.375 10.8745ZM17.375 7.37451H1.62501C1.40199 7.37476 1.18748 7.46016 1.02531 7.61325C0.863141 7.76635 0.765552 7.9756 0.752482 8.19823C0.739412 8.42087 0.811847 8.64009 0.954989 8.81112C1.09813 8.98214 1.30117 9.09205 1.52263 9.11839L1.62501 9.12451H17.375C17.598 9.12426 17.8125 9.03887 17.9747 8.88577C18.1369 8.73267 18.2345 8.52343 18.2475 8.30079C18.2606 8.07816 18.1882 7.85893 18.045 7.68791C17.9019 7.51689 17.6988 7.40698 17.4774 7.38064L17.375 7.37451ZM17.375 3.87451H1.62501C1.40199 3.87476 1.18748 3.96016 1.02531 4.11325C0.863141 4.26635 0.765552 4.4756 0.752482 4.69823C0.739412 4.92087 0.811847 5.14009 0.954989 5.31112C1.09813 5.48214 1.30117 5.59205 1.52263 5.61839L1.62501 5.62451H17.375C17.598 5.62426 17.8125 5.53887 17.9747 5.38577C18.1369 5.23267 18.2345 5.02343 18.2475 4.80079C18.2606 4.57816 18.1882 4.35893 18.045 4.18791C17.9019 4.01689 17.6988 3.90698 17.4774 3.88064L17.375 3.87451ZM17.375 0.374512H1.62501C1.40199 0.374759 1.18748 0.460156 1.02531 0.613254C0.863141 0.766352 0.765552 0.975596 0.752482 1.19823C0.739412 1.42087 0.811847 1.64009 0.954989 1.81112C1.09813 1.98214 1.30117 2.09205 1.52263 2.11839L1.62501 2.12451H17.375C17.598 2.12426 17.8125 2.03887 17.9747 1.88577C18.1369 1.73267 18.2345 1.52343 18.2475 1.30079C18.2606 1.07815 18.1882 0.85893 18.045 0.687908C17.9019 0.516887 17.6988 0.406977 17.4774 0.380637L17.375 0.374512Z" fill="#6D778A"/>
</svg>
