<svg width="19" height="19" viewBox="0 0 19 19" fill="none" xmlns="http://www.w3.org/2000/svg">
<g clip-path="url(#clip0_348_1195)">
<path d="M18.0768 6.52116C17.7257 6.11535 17.2915 5.78971 16.8036 5.56629C16.3157 5.34288 15.7855 5.2269 15.2489 5.22622L12.2572 5.22179L12.5113 3.69141C12.6013 3.15249 12.4945 2.59919 12.2105 2.13242C11.9264 1.66565 11.4841 1.31652 10.9641 1.14871C10.4441 0.980902 9.88117 1.00559 9.3779 1.21828C8.87463 1.43096 8.46459 1.81747 8.22256 2.30731L6.78292 5.21368L4.74893 5.21067C3.75473 5.21039 2.80103 5.60444 2.09703 6.30641C1.39303 7.00837 0.996198 7.96092 0.993592 8.95511L0.988253 12.7051C0.988028 13.6993 1.38214 14.653 2.08414 15.3571C2.78615 16.0611 3.73872 16.458 4.73291 16.4607L14.7079 16.4754C15.6105 16.4731 16.4823 16.1468 17.1646 15.5559C17.8469 14.9651 18.2944 14.1489 18.4257 13.2559L18.9598 9.50672C19.035 8.97488 18.9951 8.43308 18.8428 7.91799C18.6905 7.40291 18.4292 6.92655 18.0768 6.52116ZM2.48825 12.7073L2.49359 8.95733C2.49444 8.36059 2.73231 7.78865 3.15486 7.36732C3.57742 6.94599 4.15006 6.70978 4.74679 6.71067L6.24679 6.71289L6.23504 14.9629L4.73505 14.9607C4.13831 14.9598 3.56635 14.7219 3.145 14.2993C2.72364 13.8767 2.4874 13.3041 2.48825 12.7073ZM17.4714 9.29377L16.9365 13.043C16.8584 13.5784 16.5906 14.0679 16.182 14.4225C15.7734 14.7772 15.2511 14.9734 14.71 14.9754L7.73504 14.9651L7.74707 6.51561C7.81784 6.45414 7.87646 6.37994 7.91988 6.29687L9.56637 2.97305C9.62809 2.86209 9.71527 2.76736 9.82073 2.69665C9.92619 2.62594 10.0469 2.58126 10.173 2.56629C10.2991 2.55133 10.427 2.56649 10.5461 2.61055C10.6651 2.6546 10.7721 2.72629 10.8581 2.81971C10.9317 2.90551 10.9854 3.00648 11.0154 3.11542C11.0455 3.22437 11.0511 3.3386 11.0319 3.44997L10.6325 5.84938C10.615 5.95659 10.621 6.06633 10.65 6.17101C10.6791 6.27569 10.7305 6.37281 10.8008 6.45566C10.8711 6.5385 10.9585 6.60508 11.0571 6.65081C11.1556 6.69653 11.2629 6.72031 11.3715 6.72048L15.2468 6.72622C15.5688 6.72665 15.887 6.79622 16.1799 6.93021C16.4728 7.0642 16.7335 7.2595 16.9443 7.50291C17.1552 7.74632 17.3114 8.03216 17.4023 8.34111C17.4933 8.65007 17.5168 8.97494 17.4714 9.29377Z" fill="#2A3248"/>
<path d="M18.0768 6.52116C17.7257 6.11535 17.2915 5.78971 16.8036 5.56629C16.3157 5.34288 15.7855 5.2269 15.2489 5.22622L12.2572 5.22179L12.5113 3.69141C12.6013 3.15249 12.4945 2.59919 12.2105 2.13242C11.9264 1.66565 11.4841 1.31652 10.9641 1.14871C10.4441 0.980902 9.88117 1.00559 9.3779 1.21828C8.87463 1.43096 8.46459 1.81747 8.22256 2.30731L6.78292 5.21368L4.74893 5.21067C3.75473 5.21039 2.80103 5.60444 2.09703 6.30641C1.39303 7.00837 0.996198 7.96092 0.993592 8.95511L0.988253 12.7051C0.988028 13.6993 1.38214 14.653 2.08414 15.3571C2.78615 16.0611 3.73872 16.458 4.73291 16.4607L14.7079 16.4754C15.6105 16.4731 16.4823 16.1468 17.1646 15.5559C17.8469 14.9651 18.2944 14.1489 18.4257 13.2559L18.9598 9.50672C19.035 8.97488 18.9951 8.43308 18.8428 7.91799C18.6905 7.40291 18.4292 6.92655 18.0768 6.52116ZM2.48825 12.7073L2.49359 8.95733C2.49444 8.36059 2.73231 7.78865 3.15486 7.36732C3.57742 6.94599 4.15006 6.70978 4.74679 6.71067L6.24679 6.71289L6.23504 14.9629L4.73505 14.9607C4.13831 14.9598 3.56635 14.7219 3.145 14.2993C2.72364 13.8767 2.4874 13.3041 2.48825 12.7073ZM17.4714 9.29377L16.9365 13.043C16.8584 13.5784 16.5906 14.0679 16.182 14.4225C15.7734 14.7772 15.2511 14.9734 14.71 14.9754L7.73504 14.9651L7.74707 6.51561C7.81784 6.45414 7.87646 6.37994 7.91988 6.29687L9.56637 2.97305C9.62809 2.86209 9.71527 2.76736 9.82073 2.69665C9.92619 2.62594 10.0469 2.58126 10.173 2.56629C10.2991 2.55133 10.427 2.56649 10.5461 2.61055C10.6651 2.6546 10.7721 2.72629 10.8581 2.81971C10.9317 2.90551 10.9854 3.00648 11.0154 3.11542C11.0455 3.22437 11.0511 3.3386 11.0319 3.44997L10.6325 5.84938C10.615 5.95659 10.621 6.06633 10.65 6.17101C10.6791 6.27569 10.7305 6.37281 10.8008 6.45566C10.8711 6.5385 10.9585 6.60508 11.0571 6.65081C11.1556 6.69653 11.2629 6.72031 11.3715 6.72048L15.2468 6.72622C15.5688 6.72665 15.887 6.79622 16.1799 6.93021C16.4728 7.0642 16.7335 7.2595 16.9443 7.50291C17.1552 7.74632 17.3114 8.03216 17.4023 8.34111C17.4933 8.65007 17.5168 8.97494 17.4714 9.29377Z" fill="black" fill-opacity="0.2"/>
</g>
<defs>
<clipPath id="clip0_348_1195">
<rect width="18" height="18" fill="white" transform="matrix(0.999999 0.0014813 -0.00142376 0.999999 1.00488 0.70459)"/>
</clipPath>
</defs>
</svg>
