<svg width="16" height="21" viewBox="0 0 16 21" fill="none" xmlns="http://www.w3.org/2000/svg">
<path d="M8.00008 0.27417C3.58908 0.27417 8.14446e-05 3.86317 8.14446e-05 8.26917C-0.0289186 14.7142 7.69608 20.0582 8.00008 20.2742C8.00008 20.2742 16.0291 14.7142 16.0001 8.27417C16.0001 3.86317 12.4111 0.27417 8.00008 0.27417ZM8.00008 12.2742C5.79008 12.2742 4.00008 10.4842 4.00008 8.27417C4.00008 6.06417 5.79008 4.27417 8.00008 4.27417C10.2101 4.27417 12.0001 6.06417 12.0001 8.27417C12.0001 10.4842 10.2101 12.2742 8.00008 12.2742Z" fill="url(#paint0_linear_385_1675)"/>
<defs>
<linearGradient id="paint0_linear_385_1675" x1="8.00008" y1="0.27417" x2="8.00008" y2="20.2742" gradientUnits="userSpaceOnUse">
<stop stop-color="#30BD58"/>
<stop offset="1" stop-color="#399F63"/>
</linearGradient>
</defs>
</svg>
