<svg width="20" height="21" viewBox="0 0 20 21" fill="none" xmlns="http://www.w3.org/2000/svg">
<g opacity="0.5" clip-path="url(#clip0_393_3310)">
<path d="M15.8337 7.52V6.33333C15.8337 4.78624 15.2191 3.30251 14.1251 2.20854C13.0312 1.11458 11.5474 0.5 10.0003 0.5C8.45323 0.5 6.9695 1.11458 5.87554 2.20854C4.78157 3.30251 4.16699 4.78624 4.16699 6.33333V7.52C3.42479 7.84392 2.79307 8.3771 2.34907 9.05434C1.90508 9.73158 1.66806 10.5235 1.66699 11.3333V16.3333C1.66832 17.438 2.10773 18.497 2.88884 19.2782C3.66996 20.0593 4.729 20.4987 5.83366 20.5H14.167C15.2717 20.4987 16.3307 20.0593 17.1118 19.2782C17.8929 18.497 18.3323 17.438 18.3337 16.3333V11.3333C18.3326 10.5235 18.0956 9.73158 17.6516 9.05434C17.2076 8.3771 16.5759 7.84392 15.8337 7.52ZM5.83366 6.33333C5.83366 5.22826 6.27265 4.16846 7.05405 3.38705C7.83545 2.60565 8.89526 2.16667 10.0003 2.16667C11.1054 2.16667 12.1652 2.60565 12.9466 3.38705C13.728 4.16846 14.167 5.22826 14.167 6.33333V7.16667H5.83366V6.33333ZM16.667 16.3333C16.667 16.9964 16.4036 17.6323 15.9348 18.1011C15.4659 18.5699 14.83 18.8333 14.167 18.8333H5.83366C5.17062 18.8333 4.53473 18.5699 4.06589 18.1011C3.59705 17.6323 3.33366 16.9964 3.33366 16.3333V11.3333C3.33366 10.6703 3.59705 10.0344 4.06589 9.56557C4.53473 9.09672 5.17062 8.83333 5.83366 8.83333H14.167C14.83 8.83333 15.4659 9.09672 15.9348 9.56557C16.4036 10.0344 16.667 10.6703 16.667 11.3333V16.3333Z" fill="#0D0D15"/>
<path d="M10.0003 12.1665C9.77931 12.1665 9.56735 12.2543 9.41107 12.4106C9.25479 12.5669 9.16699 12.7788 9.16699 12.9998V14.6665C9.16699 14.8875 9.25479 15.0995 9.41107 15.2558C9.56735 15.412 9.77931 15.4998 10.0003 15.4998C10.2213 15.4998 10.4333 15.412 10.5896 15.2558C10.7459 15.0995 10.8337 14.8875 10.8337 14.6665V12.9998C10.8337 12.7788 10.7459 12.5669 10.5896 12.4106C10.4333 12.2543 10.2213 12.1665 10.0003 12.1665Z" fill="#0D0D15"/>
</g>
<defs>
<clipPath id="clip0_393_3310">
<rect width="20" height="20" fill="white" transform="translate(0 0.5)"/>
</clipPath>
</defs>
</svg>
