<svg width="31" height="30" viewBox="0 0 31 30" fill="none" xmlns="http://www.w3.org/2000/svg">
<rect x="-0.360577" y="0.360577" width="30.2788" height="28.2788" rx="13.4856" transform="matrix(-1 0 0 1 30.2788 0.5)" stroke="#2A3248" stroke-width="0.721154"/>
<rect x="-0.360577" y="0.360577" width="30.2788" height="28.2788" rx="13.4856" transform="matrix(-1 0 0 1 30.2788 0.5)" stroke="black" stroke-opacity="0.2" stroke-width="0.721154"/>
<g clip-path="url(#clip0_351_1086)">
<path d="M12.6873 10.1275C11.4098 10.8808 10.4813 12.108 10.104 13.5423C9.72669 14.9766 9.93098 16.5018 10.6724 17.7863C11.4139 19.0707 12.6325 20.0104 14.0633 20.4009C15.494 20.7915 17.0211 20.6013 18.3123 19.8717C18.4608 19.7926 18.6342 19.7743 18.7959 19.8206C18.9577 19.8669 19.0951 19.9742 19.1793 20.1199C19.2635 20.2655 19.2878 20.4382 19.2471 20.6015C19.2065 20.7647 19.104 20.9058 18.9613 20.995C17.6525 21.7512 16.132 22.0582 14.6323 21.869C13.1326 21.6799 11.736 21.0051 10.6558 19.9476C9.57567 18.8901 8.87136 17.5081 8.65048 16.0127C8.4296 14.5173 8.70428 12.9907 9.43257 11.6661C10.1629 10.3342 11.3109 9.27948 12.6998 8.66443C14.0887 8.04939 15.6413 7.90821 17.1184 8.26264C18.5954 8.61707 19.9149 9.44744 20.8735 10.6258C21.8321 11.8041 22.3765 13.265 22.4229 14.7833V16.0813C22.4232 16.5968 22.2561 17.0985 21.9468 17.5108C21.6374 17.9232 21.2026 18.2239 20.7076 18.3679C20.2126 18.5118 19.6843 18.4912 19.2021 18.309C18.7198 18.1268 18.3098 17.793 18.0336 17.3578C17.4847 17.949 16.7465 18.3298 15.9466 18.4345C15.1466 18.5392 14.3353 18.3611 13.6527 17.9311C12.9701 17.501 12.4593 16.846 12.2084 16.0792C11.9576 15.3125 11.9825 14.4822 12.2788 13.7318C12.5741 12.9817 13.1219 12.3582 13.8277 11.9689C14.5335 11.5795 15.353 11.4486 16.145 11.5989C16.9369 11.7491 17.6516 12.171 18.1658 12.7919C18.6799 13.4127 18.9613 14.1935 18.9613 14.9996V16.0813C18.9613 16.3682 19.0753 16.6434 19.2782 16.8462C19.481 17.0491 19.7562 17.1631 20.043 17.1631C20.3299 17.1631 20.6051 17.0491 20.8079 16.8462C21.0108 16.6434 21.1248 16.3682 21.1248 16.0813V14.8845C21.1049 13.9069 20.8305 12.9514 20.3286 12.1122C19.8268 11.273 19.1149 10.5791 18.2631 10.099C17.4113 9.61881 16.4491 9.36899 15.4713 9.37415C14.4935 9.3793 13.534 9.63925 12.6873 10.1283V10.1275ZM17.6632 14.9996C17.6632 14.4258 17.4353 13.8755 17.0296 13.4698C16.6239 13.0641 16.0736 12.8361 15.4998 12.8361C14.926 12.8361 14.3757 13.0641 13.97 13.4698C13.5643 13.8755 13.3363 14.4258 13.3363 14.9996C13.3363 15.5734 13.5643 16.1237 13.97 16.5294C14.3757 16.9351 14.926 17.1631 15.4998 17.1631C16.0736 17.1631 16.6239 16.9351 17.0296 16.5294C17.4353 16.1237 17.6632 15.5734 17.6632 14.9996Z" fill="#2A3248"/>
<path d="M12.6873 10.1275C11.4098 10.8808 10.4813 12.108 10.104 13.5423C9.72669 14.9766 9.93098 16.5018 10.6724 17.7863C11.4139 19.0707 12.6325 20.0104 14.0633 20.4009C15.494 20.7915 17.0211 20.6013 18.3123 19.8717C18.4608 19.7926 18.6342 19.7743 18.7959 19.8206C18.9577 19.8669 19.0951 19.9742 19.1793 20.1199C19.2635 20.2655 19.2878 20.4382 19.2471 20.6015C19.2065 20.7647 19.104 20.9058 18.9613 20.995C17.6525 21.7512 16.132 22.0582 14.6323 21.869C13.1326 21.6799 11.736 21.0051 10.6558 19.9476C9.57567 18.8901 8.87136 17.5081 8.65048 16.0127C8.4296 14.5173 8.70428 12.9907 9.43257 11.6661C10.1629 10.3342 11.3109 9.27948 12.6998 8.66443C14.0887 8.04939 15.6413 7.90821 17.1184 8.26264C18.5954 8.61707 19.9149 9.44744 20.8735 10.6258C21.8321 11.8041 22.3765 13.265 22.4229 14.7833V16.0813C22.4232 16.5968 22.2561 17.0985 21.9468 17.5108C21.6374 17.9232 21.2026 18.2239 20.7076 18.3679C20.2126 18.5118 19.6843 18.4912 19.2021 18.309C18.7198 18.1268 18.3098 17.793 18.0336 17.3578C17.4847 17.949 16.7465 18.3298 15.9466 18.4345C15.1466 18.5392 14.3353 18.3611 13.6527 17.9311C12.9701 17.501 12.4593 16.846 12.2084 16.0792C11.9576 15.3125 11.9825 14.4822 12.2788 13.7318C12.5741 12.9817 13.1219 12.3582 13.8277 11.9689C14.5335 11.5795 15.353 11.4486 16.145 11.5989C16.9369 11.7491 17.6516 12.171 18.1658 12.7919C18.6799 13.4127 18.9613 14.1935 18.9613 14.9996V16.0813C18.9613 16.3682 19.0753 16.6434 19.2782 16.8462C19.481 17.0491 19.7562 17.1631 20.043 17.1631C20.3299 17.1631 20.6051 17.0491 20.8079 16.8462C21.0108 16.6434 21.1248 16.3682 21.1248 16.0813V14.8845C21.1049 13.9069 20.8305 12.9514 20.3286 12.1122C19.8268 11.273 19.1149 10.5791 18.2631 10.099C17.4113 9.61881 16.4491 9.36899 15.4713 9.37415C14.4935 9.3793 13.534 9.63925 12.6873 10.1283V10.1275ZM17.6632 14.9996C17.6632 14.4258 17.4353 13.8755 17.0296 13.4698C16.6239 13.0641 16.0736 12.8361 15.4998 12.8361C14.926 12.8361 14.3757 13.0641 13.97 13.4698C13.5643 13.8755 13.3363 14.4258 13.3363 14.9996C13.3363 15.5734 13.5643 16.1237 13.97 16.5294C14.3757 16.9351 14.926 17.1631 15.4998 17.1631C16.0736 17.1631 16.6239 16.9351 17.0296 16.5294C17.4353 16.1237 17.6632 15.5734 17.6632 14.9996Z" fill="black" fill-opacity="0.2"/>
</g>
<defs>
<clipPath id="clip0_351_1086">
<rect width="13.8462" height="13.8462" fill="white" transform="translate(8.57715 8.0769)"/>
</clipPath>
</defs>
</svg>
