<svg width="21" height="20" viewBox="0 0 21 20" fill="none" xmlns="http://www.w3.org/2000/svg">
<path d="M10.4 3.66133C11.2913 3.66133 12.0139 2.93878 12.0139 2.04746C12.0139 1.15615 11.2913 0.433594 10.4 0.433594C9.50868 0.433594 8.78613 1.15615 8.78613 2.04746C8.78613 2.93878 9.50868 3.66133 10.4 3.66133Z" fill="#2A3248"/>
<path d="M10.4 3.66133C11.2913 3.66133 12.0139 2.93878 12.0139 2.04746C12.0139 1.15615 11.2913 0.433594 10.4 0.433594C9.50868 0.433594 8.78613 1.15615 8.78613 2.04746C8.78613 2.93878 9.50868 3.66133 10.4 3.66133Z" fill="black" fill-opacity="0.2"/>
<path d="M10.4 11.7309C11.2913 11.7309 12.0139 11.0084 12.0139 10.117C12.0139 9.22573 11.2913 8.50317 10.4 8.50317C9.50868 8.50317 8.78613 9.22573 8.78613 10.117C8.78613 11.0084 9.50868 11.7309 10.4 11.7309Z" fill="#2A3248"/>
<path d="M10.4 11.7309C11.2913 11.7309 12.0139 11.0084 12.0139 10.117C12.0139 9.22573 11.2913 8.50317 10.4 8.50317C9.50868 8.50317 8.78613 9.22573 8.78613 10.117C8.78613 11.0084 9.50868 11.7309 10.4 11.7309Z" fill="black" fill-opacity="0.2"/>
<path d="M10.4 19.7998C11.2913 19.7998 12.0139 19.0772 12.0139 18.1859C12.0139 17.2946 11.2913 16.572 10.4 16.572C9.50868 16.572 8.78613 17.2946 8.78613 18.1859C8.78613 19.0772 9.50868 19.7998 10.4 19.7998Z" fill="#2A3248"/>
<path d="M10.4 19.7998C11.2913 19.7998 12.0139 19.0772 12.0139 18.1859C12.0139 17.2946 11.2913 16.572 10.4 16.572C9.50868 16.572 8.78613 17.2946 8.78613 18.1859C8.78613 19.0772 9.50868 19.7998 10.4 19.7998Z" fill="black" fill-opacity="0.2"/>
</svg>
