<svg width="22" height="17" viewBox="0 0 22 17" fill="none" xmlns="http://www.w3.org/2000/svg">
<path d="M4.49585 4.51607C4.30369 4.51607 4.11939 4.59241 3.98351 4.72829C3.84763 4.86417 3.77129 5.04847 3.77129 5.24063C3.77129 5.4328 3.84763 5.61709 3.98351 5.75297C4.11939 5.88885 4.30369 5.96519 4.49585 5.96519H14.6397C14.8319 5.96519 15.0162 5.88885 15.1521 5.75297C15.2879 5.61709 15.3643 5.4328 15.3643 5.24063C15.3643 5.04847 15.2879 4.86417 15.1521 4.72829C15.0162 4.59241 14.8319 4.51607 14.6397 4.51607H4.49585ZM4.49585 7.41432C4.30369 7.41432 4.11939 7.49065 3.98351 7.62653C3.84763 7.76242 3.77129 7.94671 3.77129 8.13888V11.0371C3.77129 11.2293 3.84763 11.4136 3.98351 11.5495C4.11939 11.6853 4.30369 11.7617 4.49585 11.7617H7.3941C7.58627 11.7617 7.77056 11.6853 7.90644 11.5495C8.04232 11.4136 8.11866 11.2293 8.11866 11.0371V8.13888C8.11866 7.94671 8.04232 7.76242 7.90644 7.62653C7.77056 7.49065 7.58627 7.41432 7.3941 7.41432H4.49585ZM5.22042 10.3126V8.86344H6.66954V10.3126H5.22042ZM10.2923 7.41432C10.1002 7.41432 9.91588 7.49065 9.78 7.62653C9.64412 7.76242 9.56778 7.94671 9.56778 8.13888C9.56778 8.33104 9.64412 8.51534 9.78 8.65122C9.91588 8.7871 10.1002 8.86344 10.2923 8.86344H14.6397C14.8319 8.86344 15.0162 8.7871 15.1521 8.65122C15.2879 8.51534 15.3643 8.33104 15.3643 8.13888C15.3643 7.94671 15.2879 7.76242 15.1521 7.62653C15.0162 7.49065 14.8319 7.41432 14.6397 7.41432H10.2923ZM10.2923 10.3126C10.1002 10.3126 9.91588 10.3889 9.78 10.5248C9.64412 10.6607 9.56778 10.845 9.56778 11.0371C9.56778 11.2293 9.64412 11.4136 9.78 11.5495C9.91588 11.6853 10.1002 11.7617 10.2923 11.7617H14.6397C14.8319 11.7617 15.0162 11.6853 15.1521 11.5495C15.2879 11.4136 15.3643 11.2293 15.3643 11.0371C15.3643 10.845 15.2879 10.6607 15.1521 10.5248C15.0162 10.3889 14.8319 10.3126 14.6397 10.3126H10.2923ZM0.873047 3.06695C0.873047 2.29828 1.1784 1.5611 1.72192 1.01758C2.26545 0.474051 3.00263 0.168701 3.77129 0.168701H15.3643C16.1329 0.168701 16.8701 0.474051 17.4136 1.01758C17.9572 1.5611 18.2625 2.29828 18.2625 3.06695C19.0312 3.06695 19.7684 3.3723 20.3119 3.91582C20.8554 4.45935 21.1608 5.19653 21.1608 5.96519V12.4862C21.1608 13.4471 20.7791 14.3685 20.0997 15.048C19.4203 15.7274 18.4988 16.1091 17.538 16.1091H4.49585C3.53503 16.1091 2.61355 15.7274 1.93414 15.048C1.25473 14.3685 0.873047 13.4471 0.873047 12.4862V3.06695ZM17.538 12.4862C17.3458 12.4862 17.1615 12.4099 17.0256 12.274C16.8897 12.1381 16.8134 11.9538 16.8134 11.7617V3.06695C16.8134 2.68262 16.6607 2.31403 16.389 2.04226C16.1172 1.7705 15.7486 1.61782 15.3643 1.61782H3.77129C3.38696 1.61782 3.01837 1.7705 2.74661 2.04226C2.47484 2.31403 2.32217 2.68262 2.32217 3.06695V12.4862C2.32217 13.0627 2.55118 13.6156 2.95883 14.0233C3.36647 14.4309 3.91936 14.6599 4.49585 14.6599H17.538C18.1145 14.6599 18.6673 14.4309 19.075 14.0233C19.4826 13.6156 19.7116 13.0627 19.7116 12.4862V5.96519C19.7116 5.58086 19.559 5.21227 19.2872 4.94051C19.0154 4.66875 18.6469 4.51607 18.2625 4.51607V11.7617C18.2625 11.9538 18.1862 12.1381 18.0503 12.274C17.9144 12.4099 17.7301 12.4862 17.538 12.4862Z" fill="#6D778A"/>
</svg>
