<svg width="19" height="18" viewBox="0 0 19 18" fill="none" xmlns="http://www.w3.org/2000/svg">
<g clip-path="url(#clip0_637_2699)">
<path fill-rule="evenodd" clip-rule="evenodd" d="M5.81641 10.3013C5.81641 10.1285 5.88504 9.96285 6.0072 9.84069C6.12936 9.71853 6.29504 9.6499 6.4678 9.6499H12.5475C12.7202 9.6499 12.8859 9.71853 13.0081 9.84069C13.1302 9.96285 13.1989 10.1285 13.1989 10.3013C13.1989 10.4741 13.1302 10.6397 13.0081 10.7619C12.8859 10.8841 12.7202 10.9527 12.5475 10.9527H6.4678C6.29504 10.9527 6.12936 10.8841 6.0072 10.7619C5.88504 10.6397 5.81641 10.4741 5.81641 10.3013ZM5.81641 12.9069C5.81641 12.7341 5.88504 12.5684 6.0072 12.4463C6.12936 12.3241 6.29504 12.2555 6.4678 12.2555H12.5475C12.7202 12.2555 12.8859 12.3241 13.0081 12.4463C13.1302 12.5684 13.1989 12.7341 13.1989 12.9069C13.1989 13.0796 13.1302 13.2453 13.0081 13.3675C12.8859 13.4896 12.7202 13.5583 12.5475 13.5583H6.4678C6.29504 13.5583 6.12936 13.4896 6.0072 13.3675C5.88504 13.2453 5.81641 13.0796 5.81641 12.9069Z" fill="white"/>
<path fill-rule="evenodd" clip-rule="evenodd" d="M2.99512 2.48437C2.99512 1.52725 3.77505 0.747314 4.73217 0.747314H10.5426C11.0307 0.747314 11.491 0.954024 11.815 1.29535L11.8202 1.30143L15.5653 5.38524C15.8771 5.71789 16.023 6.15302 16.023 6.56644V15.5123C16.023 16.4694 15.2431 17.2493 14.286 17.2493H4.73217C3.77505 17.2493 2.99512 16.4694 2.99512 15.5123V2.48437ZM10.5417 2.48437H4.73217V15.5123H14.286V6.55949L10.5548 2.49045L10.5522 2.48958L10.5417 2.48437Z" fill="white"/>
<path fill-rule="evenodd" clip-rule="evenodd" d="M10.5414 0.747314C10.7717 0.747314 10.9926 0.83882 11.1555 1.0017C11.3184 1.16458 11.4099 1.38549 11.4099 1.61584V5.69791H15.1532C15.2673 5.69791 15.3802 5.72038 15.4856 5.76402C15.591 5.80767 15.6867 5.87165 15.7674 5.9523C15.848 6.03295 15.912 6.12869 15.9557 6.23407C15.9993 6.33944 16.0218 6.45238 16.0218 6.56644C16.0218 6.68049 15.9993 6.79343 15.9557 6.89881C15.912 7.00418 15.848 7.09993 15.7674 7.18058C15.6867 7.26123 15.591 7.3252 15.4856 7.36885C15.3802 7.4125 15.2673 7.43496 15.1532 7.43496H10.5414C10.311 7.43496 10.0901 7.34346 9.92724 7.18058C9.76436 7.0177 9.67285 6.79678 9.67285 6.56644V1.61584C9.67285 1.38549 9.76436 1.16458 9.92724 1.0017C10.0901 0.83882 10.311 0.747314 10.5414 0.747314Z" fill="white"/>
</g>
<defs>
<clipPath id="clip0_637_2699">
<rect width="17.3705" height="17.3705" fill="white" transform="translate(0.823242 0.314697)"/>
</clipPath>
</defs>
</svg>
