<svg width="20" height="20" viewBox="0 0 20 20" fill="none" xmlns="http://www.w3.org/2000/svg">
<path d="M7.07826 9.64425C7.49717 9.29592 7.91976 9.29592 8.34876 9.65434L8.44776 9.74417L13.0183 14.3147L13.1044 14.3908C13.2808 14.5275 13.501 14.5951 13.7237 14.5811C13.9464 14.567 14.1564 14.4722 14.3142 14.3144C14.472 14.1566 14.5668 13.9467 14.5809 13.724C14.5949 13.5012 14.5272 13.281 14.3905 13.1047L14.3144 13.0185L13.1301 11.8333L13.3978 11.5647L13.4949 11.4776C13.9138 11.1293 14.3364 11.1293 14.7654 11.4877L14.8644 11.5775L19.1489 15.8629C19.0621 16.7358 18.6653 17.5487 18.0304 18.154C17.3955 18.7593 16.5646 19.117 15.6885 19.162L15.4997 19.1666H4.49967C3.59026 19.1665 2.71331 18.8285 2.03912 18.2182C1.36493 17.6079 0.941601 16.7688 0.851341 15.8638L6.98109 9.73134L7.07826 9.64425ZM15.4997 0.833252C16.4404 0.833251 17.3451 1.19482 18.0268 1.84317C18.7084 2.49151 19.1147 3.37704 19.1618 4.31659L19.1663 4.49992V13.2862L16.1478 10.2685L16.0103 10.1429C14.8589 9.13917 13.3978 9.13734 12.2556 10.1273L12.1144 10.2557L11.833 10.5362L9.73109 8.43517L9.59359 8.30959C8.44226 7.30584 6.98109 7.304 5.83892 8.294L5.69776 8.42234L0.833008 13.2862V4.49992C0.833007 3.5592 1.19457 2.65446 1.84292 1.97284C2.49127 1.29122 3.3768 0.884872 4.31634 0.837835L4.49967 0.833252H15.4997ZM12.7588 5.41659L12.6424 5.423C12.4196 5.4495 12.2143 5.55679 12.0653 5.72455C11.9163 5.89231 11.834 6.10889 11.834 6.33325C11.834 6.55762 11.9163 6.77419 12.0653 6.94195C12.2143 7.10971 12.4196 7.217 12.6424 7.2435L12.7497 7.24992L12.8661 7.2435C13.0889 7.217 13.2942 7.10971 13.4432 6.94195C13.5922 6.77419 13.6745 6.55762 13.6745 6.33325C13.6745 6.10889 13.5922 5.89231 13.4432 5.72455C13.2942 5.55679 13.0889 5.4495 12.8661 5.423L12.7588 5.41659Z" fill="white"/>
</svg>
