<svg width="21" height="23" viewBox="0 0 21 23" fill="none" xmlns="http://www.w3.org/2000/svg">
<path d="M3.00304 12.2078H6.14872C6.34589 12.2078 6.53409 12.2573 6.71333 12.3563C6.89257 12.4552 7.027 12.6029 7.11662 12.7993L8.29961 15.1653L11.6335 8.49756C11.8307 8.0853 12.1533 7.87917 12.6014 7.87917C13.0495 7.87917 13.3721 8.0853 13.5693 8.49756L15.4245 12.2078H17.898C17.6291 10.3796 16.7956 8.84708 15.3976 7.61031C13.9995 6.37355 12.3505 5.75517 10.4505 5.75517C8.55055 5.75517 6.90153 6.37355 5.50345 7.61031C4.10537 8.84708 3.2719 10.3796 3.00304 12.2078ZM10.4505 20.8114C12.3505 20.8114 13.9995 20.193 15.3976 18.9563C16.7956 17.7195 17.6291 16.187 17.898 14.3587H14.7523C14.5551 14.3587 14.3669 14.3096 14.1877 14.2114C14.0084 14.1132 13.874 13.9651 13.7844 13.7672L12.6014 11.4013L9.26752 18.069C9.07035 18.4813 8.74772 18.6874 8.29961 18.6874C7.85151 18.6874 7.52888 18.4813 7.33171 18.069L5.47657 14.3587H3.00304C3.2719 16.187 4.10537 17.7195 5.50345 18.9563C6.90153 20.193 8.55055 20.8114 10.4505 20.8114ZM10.4505 22.9623C9.12412 22.9623 7.87409 22.7071 6.70042 22.1966C5.52675 21.6861 4.50042 20.9914 3.62142 20.1124C2.74242 19.2334 2.04804 18.2071 1.53828 17.0334C1.02852 15.8597 0.772918 14.6097 0.771484 13.2833H2.92238C2.92238 15.3625 3.65727 17.137 5.12705 18.6068C6.59682 20.0765 8.37131 20.8114 10.4505 20.8114C12.5297 20.8114 14.3042 20.0765 15.774 18.6068C17.2437 17.137 17.9786 15.3625 17.9786 13.2833H20.1295C20.1295 14.6097 19.8743 15.8601 19.3638 17.0345C18.8533 18.2088 18.1586 19.2348 17.2796 20.1124C16.4006 20.9899 15.3743 21.6847 14.2006 22.1966C13.0269 22.7085 11.7769 22.9638 10.4505 22.9623ZM0.771484 13.2833C0.771484 11.9569 1.02708 10.7065 1.53828 9.53214C2.04947 8.35775 2.74385 7.33177 3.62142 6.45421C4.49898 5.57664 5.52532 4.88226 6.70042 4.37106C7.87553 3.85987 9.12556 3.60427 10.4505 3.60427C11.5618 3.60427 12.6283 3.78351 13.65 4.14199C14.6716 4.50048 15.6306 5.02028 16.5268 5.70139L18.0324 4.19577L19.538 5.70139L18.0324 7.20702C18.7135 8.10322 19.2333 9.06216 19.5918 10.0838C19.9503 11.1055 20.1295 12.172 20.1295 13.2833H17.9786C17.9786 11.2041 17.2437 9.42961 15.774 7.95983C14.3042 6.49005 12.5297 5.75517 10.4505 5.75517C8.37131 5.75517 6.59682 6.49005 5.12705 7.95983C3.65727 9.42961 2.92238 11.2041 2.92238 13.2833H0.771484ZM7.22417 2.52882V0.37793H13.6768V2.52882H7.22417ZM10.4505 20.8114C8.37131 20.8114 6.59682 20.0765 5.12705 18.6068C3.65727 17.137 2.92238 15.3625 2.92238 13.2833C2.92238 11.2041 3.65727 9.42961 5.12705 7.95983C6.59682 6.49005 8.37131 5.75517 10.4505 5.75517C12.5297 5.75517 14.3042 6.49005 15.774 7.95983C17.2437 9.42961 17.9786 11.2041 17.9786 13.2833C17.9786 15.3625 17.2437 17.137 15.774 18.6068C14.3042 20.0765 12.5297 20.8114 10.4505 20.8114Z" fill="white"/>
</svg>
