<svg width="22" height="13" viewBox="0 0 22 13" fill="none" xmlns="http://www.w3.org/2000/svg">
<path fill-rule="evenodd" clip-rule="evenodd" d="M2.18359 10C2.58142 10 2.96295 10.158 3.24425 10.4393C3.52556 10.7206 3.68359 11.1022 3.68359 11.5C3.68359 11.8978 3.52556 12.2794 3.24425 12.5607C2.96295 12.842 2.58142 13 2.18359 13C1.78577 13 1.40424 12.842 1.12293 12.5607C0.841629 12.2794 0.683594 11.8978 0.683594 11.5C0.683594 11.1022 0.841629 10.7206 1.12293 10.4393C1.40424 10.158 1.78577 10 2.18359 10ZM20.1826 10.5C20.7356 10.5 21.1836 10.944 21.1836 11.5C21.1836 12.0525 20.7386 12.5 20.1826 12.5H6.18459C6.05311 12.5004 5.92285 12.4748 5.80129 12.4247C5.67973 12.3746 5.56927 12.301 5.47625 12.208C5.38323 12.1151 5.3095 12.0047 5.25927 11.8832C5.20905 11.7617 5.18333 11.6315 5.18359 11.5C5.18359 10.9475 5.62859 10.5 6.18459 10.5H20.1826ZM2.18359 5C2.58142 5 2.96295 5.15804 3.24425 5.43934C3.52556 5.72064 3.68359 6.10218 3.68359 6.5C3.68359 6.89782 3.52556 7.27936 3.24425 7.56066C2.96295 7.84196 2.58142 8 2.18359 8C1.78577 8 1.40424 7.84196 1.12293 7.56066C0.841629 7.27936 0.683594 6.89782 0.683594 6.5C0.683594 6.10218 0.841629 5.72064 1.12293 5.43934C1.40424 5.15804 1.78577 5 2.18359 5ZM20.1826 5.5C20.7356 5.5 21.1836 5.944 21.1836 6.5C21.1836 7.0525 20.7386 7.5 20.1826 7.5H6.18459C6.05311 7.5004 5.92285 7.47481 5.80129 7.4247C5.67973 7.3746 5.56927 7.30097 5.47625 7.20805C5.38323 7.11513 5.3095 7.00474 5.25927 6.88323C5.20905 6.76172 5.18333 6.63148 5.18359 6.5C5.18359 5.9475 5.62859 5.5 6.18459 5.5H20.1826ZM2.18359 0C2.58142 0 2.96295 0.158035 3.24425 0.43934C3.52556 0.720644 3.68359 1.10218 3.68359 1.5C3.68359 1.89782 3.52556 2.27936 3.24425 2.56066C2.96295 2.84196 2.58142 3 2.18359 3C1.78577 3 1.40424 2.84196 1.12293 2.56066C0.841629 2.27936 0.683594 1.89782 0.683594 1.5C0.683594 1.10218 0.841629 0.720644 1.12293 0.43934C1.40424 0.158035 1.78577 0 2.18359 0ZM20.1826 0.5C20.7356 0.5 21.1836 0.944 21.1836 1.5C21.1836 2.0525 20.7386 2.5 20.1826 2.5H6.18459C6.05311 2.5004 5.92285 2.47481 5.80129 2.4247C5.67973 2.3746 5.56927 2.30097 5.47625 2.20805C5.38323 2.11513 5.3095 2.00474 5.25927 1.88323C5.20905 1.76172 5.18333 1.63148 5.18359 1.5C5.18359 0.9475 5.62859 0.5 6.18459 0.5H20.1826Z" fill="#2A3248"/>
<path fill-rule="evenodd" clip-rule="evenodd" d="M2.18359 10C2.58142 10 2.96295 10.158 3.24425 10.4393C3.52556 10.7206 3.68359 11.1022 3.68359 11.5C3.68359 11.8978 3.52556 12.2794 3.24425 12.5607C2.96295 12.842 2.58142 13 2.18359 13C1.78577 13 1.40424 12.842 1.12293 12.5607C0.841629 12.2794 0.683594 11.8978 0.683594 11.5C0.683594 11.1022 0.841629 10.7206 1.12293 10.4393C1.40424 10.158 1.78577 10 2.18359 10ZM20.1826 10.5C20.7356 10.5 21.1836 10.944 21.1836 11.5C21.1836 12.0525 20.7386 12.5 20.1826 12.5H6.18459C6.05311 12.5004 5.92285 12.4748 5.80129 12.4247C5.67973 12.3746 5.56927 12.301 5.47625 12.208C5.38323 12.1151 5.3095 12.0047 5.25927 11.8832C5.20905 11.7617 5.18333 11.6315 5.18359 11.5C5.18359 10.9475 5.62859 10.5 6.18459 10.5H20.1826ZM2.18359 5C2.58142 5 2.96295 5.15804 3.24425 5.43934C3.52556 5.72064 3.68359 6.10218 3.68359 6.5C3.68359 6.89782 3.52556 7.27936 3.24425 7.56066C2.96295 7.84196 2.58142 8 2.18359 8C1.78577 8 1.40424 7.84196 1.12293 7.56066C0.841629 7.27936 0.683594 6.89782 0.683594 6.5C0.683594 6.10218 0.841629 5.72064 1.12293 5.43934C1.40424 5.15804 1.78577 5 2.18359 5ZM20.1826 5.5C20.7356 5.5 21.1836 5.944 21.1836 6.5C21.1836 7.0525 20.7386 7.5 20.1826 7.5H6.18459C6.05311 7.5004 5.92285 7.47481 5.80129 7.4247C5.67973 7.3746 5.56927 7.30097 5.47625 7.20805C5.38323 7.11513 5.3095 7.00474 5.25927 6.88323C5.20905 6.76172 5.18333 6.63148 5.18359 6.5C5.18359 5.9475 5.62859 5.5 6.18459 5.5H20.1826ZM2.18359 0C2.58142 0 2.96295 0.158035 3.24425 0.43934C3.52556 0.720644 3.68359 1.10218 3.68359 1.5C3.68359 1.89782 3.52556 2.27936 3.24425 2.56066C2.96295 2.84196 2.58142 3 2.18359 3C1.78577 3 1.40424 2.84196 1.12293 2.56066C0.841629 2.27936 0.683594 1.89782 0.683594 1.5C0.683594 1.10218 0.841629 0.720644 1.12293 0.43934C1.40424 0.158035 1.78577 0 2.18359 0ZM20.1826 0.5C20.7356 0.5 21.1836 0.944 21.1836 1.5C21.1836 2.0525 20.7386 2.5 20.1826 2.5H6.18459C6.05311 2.5004 5.92285 2.47481 5.80129 2.4247C5.67973 2.3746 5.56927 2.30097 5.47625 2.20805C5.38323 2.11513 5.3095 2.00474 5.25927 1.88323C5.20905 1.76172 5.18333 1.63148 5.18359 1.5C5.18359 0.9475 5.62859 0.5 6.18459 0.5H20.1826Z" fill="black" fill-opacity="0.2"/>
</svg>
