<svg width="27" height="27" viewBox="0 0 27 27" fill="none" xmlns="http://www.w3.org/2000/svg">
<path d="M4.76157 0.962646C3.71616 0.962646 2.71356 1.37794 1.97434 2.11716C1.23511 2.85638 0.819824 3.85898 0.819824 4.9044V19.0947C0.819824 20.1401 1.23511 21.1427 1.97434 21.8819C2.71356 22.6212 3.71616 23.0365 4.76157 23.0365H11.226C10.9685 22.5324 10.761 22.0043 10.6064 21.4598H4.76157C4.13432 21.4598 3.53276 21.2106 3.08923 20.767C2.6457 20.3235 2.39652 19.722 2.39652 19.0947V4.9044C2.39652 4.27715 2.6457 3.67559 3.08923 3.23205C3.53276 2.78852 4.13432 2.53935 4.76157 2.53935H18.9519C19.5791 2.53935 20.1807 2.78852 20.6242 3.23205C21.0678 3.67559 21.3169 4.27715 21.3169 4.9044V10.7492C21.8677 10.9058 22.3933 11.1124 22.8936 11.3689V4.9044C22.8936 3.85898 22.4783 2.85638 21.7391 2.11716C20.9999 1.37794 19.9973 0.962646 18.9519 0.962646H4.76157ZM10.6064 16.7296C10.763 16.1789 10.9696 15.6533 11.226 15.1529H4.76157C4.55249 15.1529 4.35197 15.236 4.20413 15.3839C4.05628 15.5317 3.97322 15.7322 3.97322 15.9413C3.97322 16.1504 4.05628 16.3509 4.20413 16.4987C4.35197 16.6466 4.55249 16.7296 4.76157 16.7296H10.6064ZM9.49168 19.8831C9.70076 19.8831 9.90128 19.8 10.0491 19.6521C10.197 19.5043 10.28 19.3038 10.28 19.0947C10.28 18.8856 10.197 18.6851 10.0491 18.5373C9.90128 18.3894 9.70076 18.3064 9.49168 18.3064H4.76157C4.55249 18.3064 4.35197 18.3894 4.20413 18.5373C4.05628 18.6851 3.97322 18.8856 3.97322 19.0947C3.97322 19.3038 4.05628 19.5043 4.20413 19.6521C4.35197 19.8 4.55249 19.8831 4.76157 19.8831H9.49168ZM8.70333 4.11605C8.85586 4.11603 9.00512 4.16026 9.13302 4.24338C9.26091 4.3265 9.36195 4.44493 9.42388 4.58433L12.5773 11.6795C12.6193 11.7741 12.6423 11.8761 12.6449 11.9796C12.6475 12.0831 12.6297 12.1861 12.5926 12.2827C12.5554 12.3794 12.4995 12.4677 12.4282 12.5428C12.3568 12.6178 12.2714 12.6781 12.1768 12.7201C12.0822 12.7621 11.9802 12.7851 11.8767 12.7877C11.7732 12.7904 11.6702 12.7726 11.5735 12.7354C11.4769 12.6982 11.3886 12.6423 11.3135 12.571C11.2385 12.4997 11.1782 12.4142 11.1362 12.3196L10.2926 10.4228H7.11401L6.27048 12.3196C6.18559 12.5107 6.02826 12.6603 5.83311 12.7354C5.63795 12.8105 5.42096 12.805 5.22986 12.7201C5.03875 12.6352 4.8892 12.4779 4.81409 12.2827C4.73899 12.0876 4.74449 11.8706 4.82937 11.6795L7.98277 4.58433C8.0447 4.44493 8.14574 4.3265 8.27363 4.24338C8.40153 4.16026 8.55079 4.11603 8.70333 4.11605ZM9.59258 8.84615L8.70333 6.84532L7.81407 8.84615H9.59258ZM17.3752 4.9044C17.3752 4.69531 17.2921 4.49479 17.1443 4.34695C16.9964 4.19911 16.7959 4.11605 16.5868 4.11605C16.3777 4.11605 16.1772 4.19911 16.0294 4.34695C15.8815 4.49479 15.7985 4.69531 15.7985 4.9044V6.4811H14.2218C14.0127 6.4811 13.8122 6.56416 13.6643 6.712C13.5165 6.85984 13.4334 7.06036 13.4334 7.26945C13.4334 7.47853 13.5165 7.67905 13.6643 7.8269C13.8122 7.97474 14.0127 8.0578 14.2218 8.0578H15.7985V9.6345C15.7985 9.84358 15.8815 10.0441 16.0294 10.1919C16.1772 10.3398 16.3777 10.4228 16.5868 10.4228C16.7959 10.4228 16.9964 10.3398 17.1443 10.1919C17.2921 10.0441 17.3752 9.84358 17.3752 9.6345V8.0578H18.9519C19.161 8.0578 19.3615 7.97474 19.5093 7.8269C19.6572 7.67905 19.7402 7.47853 19.7402 7.26945C19.7402 7.06036 19.6572 6.85984 19.5093 6.712C19.3615 6.56416 19.161 6.4811 18.9519 6.4811H17.3752V4.9044ZM26.047 19.0947C26.047 20.9765 25.2995 22.7811 23.9689 24.1117C22.6383 25.4423 20.8336 26.1899 18.9519 26.1899C17.0701 26.1899 15.2654 25.4423 13.9348 24.1117C12.6042 22.7811 11.8567 20.9765 11.8567 19.0947C11.8567 17.2129 12.6042 15.4083 13.9348 14.0777C15.2654 12.7471 17.0701 11.9995 18.9519 11.9995C20.8336 11.9995 22.6383 12.7471 23.9689 14.0777C25.2995 15.4083 26.047 17.2129 26.047 19.0947ZM19.7402 15.9413C19.7402 15.7322 19.6572 15.5317 19.5093 15.3839C19.3615 15.236 19.161 15.1529 18.9519 15.1529C18.7428 15.1529 18.5423 15.236 18.3944 15.3839C18.2466 15.5317 18.1635 15.7322 18.1635 15.9413V18.3064H15.7985C15.5894 18.3064 15.3889 18.3894 15.241 18.5373C15.0932 18.6851 15.0101 18.8856 15.0101 19.0947C15.0101 19.3038 15.0932 19.5043 15.241 19.6521C15.3889 19.8 15.5894 19.8831 15.7985 19.8831H18.1635V22.2481C18.1635 22.4572 18.2466 22.6577 18.3944 22.8055C18.5423 22.9534 18.7428 23.0365 18.9519 23.0365C19.161 23.0365 19.3615 22.9534 19.5093 22.8055C19.6572 22.6577 19.7402 22.4572 19.7402 22.2481V19.8831H22.1053C22.3144 19.8831 22.5149 19.8 22.6627 19.6521C22.8106 19.5043 22.8936 19.3038 22.8936 19.0947C22.8936 18.8856 22.8106 18.6851 22.6627 18.5373C22.5149 18.3894 22.3144 18.3064 22.1053 18.3064H19.7402V15.9413Z" fill="white"/>
</svg>
