<svg width="24" height="24" viewBox="0 0 24 24" fill="none" xmlns="http://www.w3.org/2000/svg">
<path d="M17.2187 11.905C17.2187 11.1902 16.6339 10.6055 15.9192 10.6055H12.0207C11.306 10.6055 10.7212 11.1902 10.7212 11.905C10.7212 12.6197 11.306 13.2045 12.0207 13.2045H15.9192C16.6339 13.2045 17.2187 12.6197 17.2187 11.905ZM12.0207 2.80847C17.0354 2.80847 21.1172 6.89019 21.1172 11.905C21.1172 16.9197 17.0354 21.0014 12.0207 21.0014C7.00592 21.0014 2.92419 16.9197 2.92419 11.905C2.92419 6.89019 7.00592 2.80847 12.0207 2.80847ZM12.0207 0.209473C5.56087 0.209473 0.325195 5.44515 0.325195 11.905C0.325195 18.3648 5.56087 23.6004 12.0207 23.6004C18.4805 23.6004 23.7162 18.3648 23.7162 11.905C23.7162 5.44515 18.4805 0.209473 12.0207 0.209473ZM13.3202 8.00646C13.3202 7.29174 12.7354 6.70697 12.0207 6.70697C11.306 6.70697 10.7212 7.29174 10.7212 8.00646V11.905C10.7212 12.6197 11.306 13.2045 12.0207 13.2045C12.7354 13.2045 13.3202 12.6197 13.3202 11.905V8.00646ZM12.0207 5.40747C15.6034 5.40747 18.5182 8.32224 18.5182 11.905C18.5182 15.4877 15.6034 18.4025 12.0207 18.4025C8.43796 18.4025 5.52319 15.4877 5.52319 11.905C5.52319 8.32224 8.43796 5.40747 12.0207 5.40747ZM12.0207 4.10797C9.95279 4.10797 7.9696 4.92944 6.50738 6.39165C5.04516 7.85387 4.22369 9.83707 4.22369 11.905C4.22369 13.9729 5.04516 15.956 6.50738 17.4183C7.9696 18.8805 9.95279 19.702 12.0207 19.702C14.0886 19.702 16.0718 18.8805 17.534 17.4183C18.9962 15.956 19.8177 13.9729 19.8177 11.905C19.8177 9.83707 18.9962 7.85387 17.534 6.39165C16.0718 4.92944 14.0886 4.10797 12.0207 4.10797Z" fill="white"/>
</svg>
