<svg width="26" height="27" viewBox="0 0 26 27" fill="none" xmlns="http://www.w3.org/2000/svg">
<g clip-path="url(#clip0_336_5947)">
<path d="M25.4534 10.1791C25.2383 9.49431 24.8085 8.89697 24.2276 8.47537C23.6467 8.05377 22.9456 7.83031 22.2279 7.83802H17.6331L16.2375 3.48826C16.018 2.80357 15.5868 2.20627 15.006 1.7825C14.4251 1.35872 13.7247 1.13037 13.0057 1.13037C12.2867 1.13037 11.5863 1.35872 11.0054 1.7825C10.4246 2.20627 9.99333 2.80357 9.77386 3.48826L8.37828 7.83802H3.78348C3.06806 7.83904 2.37127 8.06611 1.79262 8.48681C1.21397 8.9075 0.78307 9.5003 0.56146 10.1805C0.33985 10.8607 0.338869 11.5936 0.558657 12.2744C0.778446 12.9552 1.20776 13.5492 1.78528 13.9714L5.52506 16.7058L4.10319 21.1092C3.87341 21.7922 3.8705 22.5311 4.09489 23.2158C4.31928 23.9006 4.75896 24.4944 5.34838 24.9089C5.9277 25.3367 6.62974 25.5659 7.3499 25.5623C8.07005 25.5587 8.76976 25.3225 9.34478 24.889L13.0057 22.1945L16.6676 24.8858C17.2459 25.3111 17.9442 25.5422 18.662 25.5457C19.3799 25.5492 20.0803 25.325 20.6627 24.9053C21.2451 24.4856 21.6794 23.892 21.9032 23.2099C22.127 22.5278 22.1287 21.7923 21.9082 21.1092L20.4863 16.7058L24.2303 13.9714C24.8144 13.5545 25.2488 12.9606 25.469 12.2775C25.6893 11.5945 25.6838 10.8587 25.4534 10.1791ZM22.9893 12.273L18.6311 15.4585C18.4521 15.5891 18.3189 15.7729 18.2506 15.9837C18.1822 16.1944 18.1822 16.4214 18.2504 16.6322L19.9068 21.7539C19.9906 22.0137 19.9899 22.2933 19.9048 22.5527C19.8196 22.812 19.6544 23.0377 19.433 23.1972C19.2115 23.3567 18.9451 23.4419 18.6722 23.4405C18.3992 23.4391 18.1337 23.3512 17.9139 23.1894L13.6283 20.0344C13.4478 19.9018 13.2297 19.8303 13.0057 19.8303C12.7817 19.8303 12.5636 19.9018 12.3831 20.0344L8.09748 23.1894C7.87777 23.3534 7.61154 23.4431 7.33739 23.4456C7.06325 23.4481 6.79543 23.3632 6.57278 23.2033C6.35013 23.0433 6.18421 22.8166 6.09907 22.556C6.01393 22.2954 6.01401 22.0144 6.09928 21.7539L7.76094 16.6322C7.82921 16.4214 7.82916 16.1944 7.7608 15.9837C7.69243 15.7729 7.55924 15.5891 7.38023 15.4585L3.02206 12.273C2.80258 12.1123 2.63949 11.8863 2.5561 11.6274C2.47271 11.3685 2.47328 11.0898 2.55772 10.8312C2.64217 10.5726 2.80617 10.3473 3.02631 10.1875C3.24645 10.0277 3.51145 9.94158 3.78348 9.94138H9.14706C9.36972 9.94138 9.58663 9.8707 9.76655 9.73954C9.94648 9.60838 10.0801 9.42349 10.1483 9.21152L11.7784 4.13084C11.862 3.87084 12.0261 3.64411 12.2468 3.48326C12.4675 3.32241 12.7336 3.23575 13.0067 3.23575C13.2799 3.23575 13.5459 3.32241 13.7667 3.48326C13.9874 3.64411 14.1514 3.87084 14.2351 4.13084L15.8652 9.21152C15.9333 9.42349 16.067 9.60838 16.2469 9.73954C16.4268 9.8707 16.6438 9.94138 16.8664 9.94138H22.23C22.502 9.94158 22.767 10.0277 22.9872 10.1875C23.2073 10.3473 23.3713 10.5726 23.4557 10.8312C23.5402 11.0898 23.5408 11.3685 23.4574 11.6274C23.374 11.8863 23.2109 12.1123 22.9914 12.273H22.9893Z" fill="white"/>
</g>
<defs>
<clipPath id="clip0_336_5947">
<rect width="25.2404" height="25.2404" fill="white" transform="translate(0.385742 0.930176)"/>
</clipPath>
</defs>
</svg>
