<svg width="18" height="13" viewBox="0 0 18 13" fill="none" xmlns="http://www.w3.org/2000/svg">
<path d="M1.04655 12.8498C0.804781 12.8901 0.586648 12.8329 0.392155 12.6782C0.197662 12.5234 0.100147 12.319 0.0996094 12.0649V1.06339C0.0996094 0.808183 0.197125 0.603481 0.392155 0.449284C0.587185 0.295087 0.805318 0.237867 1.04655 0.277625L4.27019 0.801467C4.45824 0.82833 4.6162 0.91913 4.74407 1.07386C4.87194 1.2286 4.93561 1.40644 4.93507 1.60738V11.5201C4.93507 11.7215 4.87113 11.8997 4.74326 12.0544C4.61539 12.2091 4.4577 12.2997 4.27019 12.326L1.04655 12.8498ZM7.3528 12.2051C7.12446 12.2051 6.93319 12.1277 6.77899 11.973C6.62479 11.8183 6.54743 11.627 6.54689 11.3992V1.72826C6.54689 1.49992 6.62426 1.30865 6.77899 1.15446C6.93373 1.00026 7.12499 0.92289 7.3528 0.922353H10.5764C10.8048 0.922353 10.9963 0.999721 11.1511 1.15446C11.3058 1.30919 11.3829 1.50046 11.3823 1.72826V11.3992C11.3823 11.6275 11.305 11.8191 11.1502 11.9738C10.9955 12.1285 10.8042 12.2056 10.5764 12.2051H7.3528ZM13.659 12.326C13.471 12.2991 13.3133 12.2086 13.186 12.0544C13.0586 11.9002 12.9947 11.7221 12.9942 11.5201V1.60738C12.9942 1.4059 13.0581 1.22806 13.186 1.07386C13.3138 0.919667 13.4715 0.828867 13.659 0.801467L16.8827 0.277625C17.1245 0.237329 17.3429 0.294549 17.5379 0.449284C17.7329 0.604019 17.8302 0.80872 17.8296 1.06339V12.0641C17.8296 12.3193 17.7321 12.5242 17.5371 12.679C17.3421 12.8337 17.1239 12.8907 16.8827 12.8498L13.659 12.326Z" fill="white"/>
</svg>
