<svg width="24" height="25" viewBox="0 0 24 25" fill="none" xmlns="http://www.w3.org/2000/svg">
<g clip-path="url(#clip0_360_766)">
<path d="M24 12.5C24 12.7652 23.8946 13.0196 23.7071 13.2071C23.5196 13.3946 23.2652 13.5 23 13.5C22.7348 13.5 22.4804 13.3946 22.2929 13.2071C22.1054 13.0196 22 12.7652 22 12.5C21.9971 9.84873 20.9426 7.30688 19.0679 5.43215C17.1931 3.55742 14.6513 2.50291 12 2.5C11.7348 2.5 11.4804 2.39464 11.2929 2.20711C11.1054 2.01957 11 1.76522 11 1.5C11 1.23478 11.1054 0.98043 11.2929 0.792893C11.4804 0.605357 11.7348 0.5 12 0.5C15.1815 0.503441 18.2318 1.76883 20.4815 4.01852C22.7312 6.26821 23.9966 9.31846 24 12.5ZM16 13.5C16.2652 13.5 16.5196 13.3946 16.7071 13.2071C16.8946 13.0196 17 12.7652 17 12.5C17 12.2348 16.8946 11.9804 16.7071 11.7929C16.5196 11.6054 16.2652 11.5 16 11.5H13.723C13.5487 11.2004 13.2996 10.9513 13 10.777V7.5C13 7.23478 12.8946 6.98043 12.7071 6.79289C12.5196 6.60536 12.2652 6.5 12 6.5C11.7348 6.5 11.4804 6.60536 11.2929 6.79289C11.1054 6.98043 11 7.23478 11 7.5V10.777C10.7348 10.9297 10.5083 11.1414 10.338 11.3958C10.1677 11.6501 10.0583 11.9402 10.0182 12.2436C9.97807 12.547 10.0083 12.8556 10.1066 13.1454C10.2049 13.4353 10.3686 13.6986 10.585 13.915C10.8014 14.1314 11.0647 14.2951 11.3546 14.3934C11.6444 14.4917 11.953 14.5219 12.2564 14.4818C12.5598 14.4417 12.8499 14.3323 13.1042 14.162C13.3586 13.9917 13.5703 13.7652 13.723 13.5H16ZM1.827 7.284C1.62922 7.284 1.43588 7.34265 1.27143 7.45253C1.10698 7.56241 0.978809 7.71859 0.903121 7.90132C0.827433 8.08404 0.80763 8.28511 0.846215 8.47909C0.8848 8.67307 0.980041 8.85125 1.11989 8.99111C1.25975 9.13096 1.43793 9.2262 1.63191 9.26478C1.82589 9.30337 2.02696 9.28357 2.20968 9.20788C2.39241 9.13219 2.54859 9.00402 2.65847 8.83957C2.76835 8.67512 2.827 8.48178 2.827 8.284C2.827 8.01878 2.72164 7.76443 2.53411 7.57689C2.34657 7.38936 2.09222 7.284 1.827 7.284ZM2 12.5C2 12.3022 1.94135 12.1089 1.83147 11.9444C1.72159 11.78 1.56541 11.6518 1.38268 11.5761C1.19996 11.5004 0.998891 11.4806 0.80491 11.5192C0.610929 11.5578 0.432746 11.653 0.292894 11.7929C0.153041 11.9327 0.0578004 12.1109 0.0192152 12.3049C-0.0193701 12.4989 0.000433281 12.7 0.0761209 12.8827C0.151809 13.0654 0.279981 13.2216 0.44443 13.3315C0.608879 13.4414 0.802219 13.5 1 13.5C1.26522 13.5 1.51957 13.3946 1.70711 13.2071C1.89464 13.0196 2 12.7652 2 12.5ZM12 22.5C11.8022 22.5 11.6089 22.5586 11.4444 22.6685C11.28 22.7784 11.1518 22.9346 11.0761 23.1173C11.0004 23.3 10.9806 23.5011 11.0192 23.6951C11.0578 23.8891 11.153 24.0673 11.2929 24.2071C11.4327 24.347 11.6109 24.4422 11.8049 24.4808C11.9989 24.5194 12.2 24.4996 12.3827 24.4239C12.5654 24.3482 12.7216 24.22 12.8315 24.0556C12.9414 23.8911 13 23.6978 13 23.5C13 23.2348 12.8946 22.9804 12.7071 22.7929C12.5196 22.6054 12.2652 22.5 12 22.5ZM4.221 3.707C4.02322 3.707 3.82988 3.76565 3.66543 3.87553C3.50098 3.98541 3.37281 4.14159 3.29712 4.32432C3.22143 4.50704 3.20163 4.70811 3.24022 4.90209C3.2788 5.09607 3.37404 5.27425 3.51389 5.41411C3.65375 5.55396 3.83193 5.6492 4.02591 5.68779C4.21989 5.72637 4.42096 5.70657 4.60368 5.63088C4.78641 5.55519 4.94259 5.42702 5.05247 5.26257C5.16235 5.09812 5.221 4.90478 5.221 4.707C5.221 4.44178 5.11564 4.18743 4.92811 3.99989C4.74057 3.81236 4.48622 3.707 4.221 3.707ZM7.779 1.341C7.58122 1.341 7.38788 1.39965 7.22343 1.50953C7.05898 1.61941 6.93081 1.77559 6.85512 1.95832C6.77943 2.14104 6.75963 2.34211 6.79822 2.53609C6.8368 2.73007 6.93204 2.90825 7.07189 3.04811C7.21175 3.18796 7.38993 3.2832 7.58391 3.32179C7.77789 3.36037 7.97896 3.34057 8.16168 3.26488C8.34441 3.18919 8.50059 3.06102 8.61047 2.89657C8.72035 2.73212 8.779 2.53878 8.779 2.341C8.779 2.07578 8.67364 1.82143 8.48611 1.63389C8.29857 1.44636 8.04422 1.341 7.779 1.341ZM1.827 15.716C1.62922 15.716 1.43588 15.7746 1.27143 15.8845C1.10698 15.9944 0.978809 16.1506 0.903121 16.3333C0.827433 16.516 0.80763 16.7171 0.846215 16.9111C0.8848 17.1051 0.980041 17.2833 1.11989 17.4231C1.25975 17.563 1.43793 17.6582 1.63191 17.6968C1.82589 17.7354 2.02696 17.7156 2.20968 17.6399C2.39241 17.5642 2.54859 17.436 2.65847 17.2716C2.76835 17.1071 2.827 16.9138 2.827 16.716C2.827 16.4508 2.72164 16.1964 2.53411 16.0089C2.34657 15.8214 2.09222 15.716 1.827 15.716ZM4.221 19.293C4.02322 19.293 3.82988 19.3516 3.66543 19.4615C3.50098 19.5714 3.37281 19.7276 3.29712 19.9103C3.22143 20.093 3.20163 20.2941 3.24022 20.4881C3.2788 20.6821 3.37404 20.8603 3.51389 21.0001C3.65375 21.14 3.83193 21.2352 4.02591 21.2738C4.21989 21.3124 4.42096 21.2926 4.60368 21.2169C4.78641 21.1412 4.94259 21.013 5.05247 20.8486C5.16235 20.6841 5.221 20.4908 5.221 20.293C5.221 20.0278 5.11564 19.7734 4.92811 19.5859C4.74057 19.3984 4.48622 19.293 4.221 19.293ZM7.779 21.659C7.58122 21.659 7.38788 21.7176 7.22343 21.8275C7.05898 21.9374 6.93081 22.0936 6.85512 22.2763C6.77943 22.459 6.75963 22.6601 6.79822 22.8541C6.8368 23.0481 6.93204 23.2263 7.07189 23.3661C7.21175 23.506 7.38993 23.6012 7.58391 23.6398C7.77789 23.6784 7.97896 23.6586 8.16168 23.5829C8.34441 23.5072 8.50059 23.379 8.61047 23.2146C8.72035 23.0501 8.779 22.8568 8.779 22.659C8.779 22.3938 8.67364 22.1394 8.48611 21.9519C8.29857 21.7644 8.04422 21.659 7.779 21.659ZM22.173 15.716C21.9752 15.716 21.7819 15.7746 21.6174 15.8845C21.453 15.9944 21.3248 16.1506 21.2491 16.3333C21.1734 16.516 21.1536 16.7171 21.1922 16.9111C21.2308 17.1051 21.326 17.2833 21.4659 17.4231C21.6057 17.563 21.7839 17.6582 21.9779 17.6968C22.1719 17.7354 22.373 17.7156 22.5557 17.6399C22.7384 17.5642 22.8946 17.436 23.0045 17.2716C23.1144 17.1071 23.173 16.9138 23.173 16.716C23.173 16.4508 23.0676 16.1964 22.8801 16.0089C22.6926 15.8214 22.4382 15.716 22.173 15.716ZM19.779 19.293C19.5812 19.293 19.3879 19.3516 19.2234 19.4615C19.059 19.5714 18.9308 19.7276 18.8551 19.9103C18.7794 20.093 18.7596 20.2941 18.7982 20.4881C18.8368 20.6821 18.932 20.8603 19.0719 21.0001C19.2117 21.14 19.3899 21.2352 19.5839 21.2738C19.7779 21.3124 19.979 21.2926 20.1617 21.2169C20.3444 21.1412 20.5006 21.013 20.6105 20.8486C20.7204 20.6841 20.779 20.4908 20.779 20.293C20.779 20.0278 20.6736 19.7734 20.4861 19.5859C20.2986 19.3984 20.0442 19.293 19.779 19.293ZM16.221 21.659C16.0232 21.659 15.8299 21.7176 15.6654 21.8275C15.501 21.9374 15.3728 22.0936 15.2971 22.2763C15.2214 22.459 15.2016 22.6601 15.2402 22.8541C15.2788 23.0481 15.374 23.2263 15.5139 23.3661C15.6537 23.506 15.8319 23.6012 16.0259 23.6398C16.2199 23.6784 16.421 23.6586 16.6037 23.5829C16.7864 23.5072 16.9426 23.379 17.0525 23.2146C17.1624 23.0501 17.221 22.8568 17.221 22.659C17.221 22.3938 17.1156 22.1394 16.9281 21.9519C16.7406 21.7644 16.4862 21.659 16.221 21.659Z" fill="white"/>
</g>
<defs>
<clipPath id="clip0_360_766">
<rect width="24" height="24" fill="white" transform="translate(0 0.5)"/>
</clipPath>
</defs>
</svg>
