<svg width="20" height="24" viewBox="0 0 20 24" fill="none" xmlns="http://www.w3.org/2000/svg">
<path d="M2.45934 12.306H5.59712C5.79379 12.306 5.98152 12.3554 6.16031 12.4541C6.3391 12.5528 6.47319 12.7001 6.56259 12.8961L7.74261 15.2561L11.0681 8.60508C11.2648 8.19386 11.5866 7.98825 12.0336 7.98825C12.4806 7.98825 12.8024 8.19386 12.9991 8.60508L14.8495 12.306H17.3168C17.0487 10.4824 16.2173 8.95372 14.8227 7.72006C13.4281 6.48641 11.7833 5.86958 9.88809 5.86958C7.99291 5.86958 6.34804 6.48641 4.95347 7.72006C3.5589 8.95372 2.72753 10.4824 2.45934 12.306ZM9.88809 20.888C11.7833 20.888 13.4281 20.2712 14.8227 19.0375C16.2173 17.8039 17.0487 16.2752 17.3168 14.4515H14.1791C13.9824 14.4515 13.7947 14.4025 13.6159 14.3046C13.4371 14.2066 13.303 14.0589 13.2136 13.8615L12.0336 11.5015L8.70807 18.1525C8.5114 18.5637 8.18958 18.7693 7.74261 18.7693C7.29563 18.7693 6.97381 18.5637 6.77714 18.1525L4.92665 14.4515H2.45934C2.72753 16.2752 3.5589 17.8039 4.95347 19.0375C6.34804 20.2712 7.99291 20.888 9.88809 20.888ZM9.88809 23.0335C8.56504 23.0335 7.31816 22.7789 6.14744 22.2697C4.97671 21.7605 3.95296 21.0675 3.07617 20.1907C2.19938 19.3139 1.50675 18.2902 0.998265 17.1194C0.489784 15.9487 0.234829 14.7018 0.233398 13.3788H2.37889C2.37889 15.4528 3.11193 17.2228 4.57801 18.6889C6.04409 20.155 7.81412 20.888 9.88809 20.888C11.9621 20.888 13.7321 20.155 15.1982 18.6889C16.6643 17.2228 17.3973 15.4528 17.3973 13.3788H19.5428C19.5428 14.7018 19.2882 15.9491 18.779 17.1205C18.2698 18.292 17.5768 19.3154 16.7 20.1907C15.8232 21.0661 14.7995 21.7591 13.6288 22.2697C12.458 22.7803 11.2111 23.0349 9.88809 23.0335ZM0.233398 13.3788C0.233398 12.0557 0.488354 10.8085 0.998265 9.63706C1.50818 8.46562 2.20081 7.44222 3.07617 6.56686C3.95153 5.6915 4.97528 4.99887 6.14744 4.48896C7.31959 3.97905 8.56647 3.72409 9.88809 3.72409C10.9966 3.72409 12.0604 3.90288 13.0795 4.26046C14.0986 4.61804 15.0551 5.13654 15.9491 5.81594L17.4509 4.3141L18.9528 5.81594L17.4509 7.31778C18.1303 8.21174 18.6488 9.16827 19.0064 10.1874C19.364 11.2065 19.5428 12.2703 19.5428 13.3788H17.3973C17.3973 11.3048 16.6643 9.53479 15.1982 8.0687C13.7321 6.60262 11.9621 5.86958 9.88809 5.86958C7.81412 5.86958 6.04409 6.60262 4.57801 8.0687C3.11193 9.53479 2.37889 11.3048 2.37889 13.3788H0.233398ZM6.66986 2.65135V0.505859H13.1063V2.65135H6.66986ZM9.88809 20.888C7.81412 20.888 6.04409 20.155 4.57801 18.6889C3.11193 17.2228 2.37889 15.4528 2.37889 13.3788C2.37889 11.3048 3.11193 9.53479 4.57801 8.0687C6.04409 6.60262 7.81412 5.86958 9.88809 5.86958C11.9621 5.86958 13.7321 6.60262 15.1982 8.0687C16.6643 9.53479 17.3973 11.3048 17.3973 13.3788C17.3973 15.4528 16.6643 17.2228 15.1982 18.6889C13.7321 20.155 11.9621 20.888 9.88809 20.888Z" fill="white"/>
</svg>
