<svg width="20" height="21" viewBox="0 0 20 21" fill="none" xmlns="http://www.w3.org/2000/svg">
<path d="M8.00002 19.2771C7.12989 19.0789 6.29407 18.7523 5.52002 18.3081M12 1.72314C13.9882 2.17722 15.7633 3.29284 17.0347 4.88735C18.3061 6.48187 18.9985 8.4608 18.9985 10.5001C18.9985 12.5395 18.3061 14.5184 17.0347 16.1129C15.7633 17.7075 13.9882 18.8231 12 19.2771M2.57902 15.5931C2.03412 14.8003 1.61986 13.9252 1.35202 13.0011M1.12402 9.00014C1.28402 8.05014 1.59202 7.15014 2.02402 6.32514L2.19302 6.02014M4.90702 3.07914C5.84322 2.43602 6.8927 1.97592 8.00002 1.72314" stroke="white" stroke-width="2" stroke-linecap="round" stroke-linejoin="round"/>
<path d="M7 10.5L9 12.5L13 8.5" stroke="white" stroke-width="2" stroke-linecap="round" stroke-linejoin="round"/>
</svg>
