<svg width="25" height="24" viewBox="0 0 25 24" fill="none" xmlns="http://www.w3.org/2000/svg">
<path d="M17.6459 12.1326C17.6459 11.4197 17.0626 10.8364 16.3497 10.8364H12.461C11.7481 10.8364 11.1648 11.4197 11.1648 12.1326C11.1648 12.8456 11.7481 13.4289 12.461 13.4289H16.3497C17.0626 13.4289 17.6459 12.8456 17.6459 12.1326ZM12.461 3.05902C17.4632 3.05902 21.5346 7.13048 21.5346 12.1326C21.5346 17.1348 17.4632 21.2063 12.461 21.2063C7.45885 21.2063 3.38739 17.1348 3.38739 12.1326C3.38739 7.13048 7.45885 3.05902 12.461 3.05902ZM12.461 0.466553C6.01744 0.466553 0.794922 5.68907 0.794922 12.1326C0.794922 18.5762 6.01744 23.7987 12.461 23.7987C18.9046 23.7987 24.1271 18.5762 24.1271 12.1326C24.1271 5.68907 18.9046 0.466553 12.461 0.466553ZM13.7572 8.24395C13.7572 7.53102 13.1739 6.94771 12.461 6.94771C11.7481 6.94771 11.1648 7.53102 11.1648 8.24395V12.1326C11.1648 12.8456 11.7481 13.4289 12.461 13.4289C13.1739 13.4289 13.7572 12.8456 13.7572 12.1326V8.24395ZM12.461 5.65148C16.0347 5.65148 18.9422 8.55893 18.9422 12.1326C18.9422 15.7064 16.0347 18.6138 12.461 18.6138C8.8873 18.6138 5.97985 15.7064 5.97985 12.1326C5.97985 8.55893 8.8873 5.65148 12.461 5.65148ZM12.461 4.35525C10.3983 4.35525 8.42011 5.17465 6.96156 6.6332C5.50302 8.09174 4.68362 10.0699 4.68362 12.1326C4.68362 14.1953 5.50302 16.1735 6.96156 17.6321C8.42011 19.0906 10.3983 19.91 12.461 19.91C14.5237 19.91 16.5019 19.0906 17.9605 17.6321C19.419 16.1735 20.2384 14.1953 20.2384 12.1326C20.2384 10.0699 19.419 8.09174 17.9605 6.6332C16.5019 5.17465 14.5237 4.35525 12.461 4.35525Z" fill="white"/>
</svg>
