<svg width="16" height="16" viewBox="0 0 16 16" fill="none" xmlns="http://www.w3.org/2000/svg">
<path d="M2.5083 15.0859C2.00785 15.0859 1.57958 14.9079 1.2235 14.5518C0.867425 14.1957 0.689083 13.7672 0.688477 13.2661V11.4463C0.688477 11.1885 0.775828 10.9725 0.950531 10.7984C1.12523 10.6243 1.34119 10.537 1.59839 10.5364C1.85559 10.5358 2.07184 10.6231 2.24715 10.7984C2.42246 10.9737 2.50951 11.1897 2.5083 11.4463V13.2661H13.4272V11.4463C13.4272 11.1885 13.5146 10.9725 13.6893 10.7984C13.864 10.6243 14.0799 10.537 14.3371 10.5364C14.5943 10.5358 14.8106 10.6231 14.9859 10.7984C15.1612 10.9737 15.2482 11.1897 15.247 11.4463V13.2661C15.247 13.7666 15.069 14.1951 14.7129 14.5518C14.3568 14.9085 13.9283 15.0865 13.4272 15.0859H2.5083ZM7.05785 4.03052L5.35177 5.7366C5.16978 5.91858 4.95383 6.00593 4.70391 5.99865C4.45399 5.99137 4.23773 5.89644 4.05514 5.71385C3.88833 5.53187 3.80098 5.31956 3.79309 5.07691C3.7852 4.83427 3.87255 4.62196 4.05514 4.43998L7.33082 1.1643C7.42181 1.07331 7.52038 1.00901 7.62654 0.971401C7.7327 0.933791 7.84644 0.914683 7.96776 0.914076C8.08908 0.91347 8.20282 0.932578 8.30897 0.971401C8.41513 1.01022 8.5137 1.07452 8.60469 1.1643L11.8804 4.43998C12.0624 4.62196 12.1497 4.83427 12.1424 5.07691C12.1351 5.31956 12.0478 5.53187 11.8804 5.71385C11.6984 5.89583 11.4824 5.99077 11.2325 5.99865C10.9826 6.00654 10.7663 5.91919 10.5837 5.7366L8.87767 4.03052V10.5364C8.87767 10.7942 8.79031 11.0104 8.61561 11.1851C8.44091 11.3598 8.22496 11.4469 7.96776 11.4463C7.71056 11.4457 7.4946 11.3583 7.3199 11.1842C7.1452 11.0101 7.05785 10.7942 7.05785 10.5364V4.03052Z" fill="#0D0D15"/>
</svg>
