<svg width="19" height="19" viewBox="0 0 19 19" fill="none" xmlns="http://www.w3.org/2000/svg">
<path fill-rule="evenodd" clip-rule="evenodd" d="M9.61285 18.7289C10.8247 18.7289 12.0247 18.4902 13.1443 18.0264C14.2639 17.5627 15.2812 16.8829 16.1381 16.026C16.995 15.1691 17.6747 14.1518 18.1385 13.0322C18.6022 11.9126 18.8409 10.7126 18.8409 9.50079C18.8409 8.28894 18.6022 7.08896 18.1385 5.96936C17.6747 4.84975 16.995 3.83246 16.1381 2.97555C15.2812 2.11864 14.2639 1.43891 13.1443 0.975151C12.0247 0.511396 10.8247 0.272705 9.61285 0.272705C7.16541 0.272705 4.81821 1.24495 3.08761 2.97555C1.35701 4.70615 0.384766 7.05335 0.384766 9.50079C0.384766 11.9482 1.35701 14.2954 3.08761 16.026C4.81821 17.7566 7.16541 18.7289 9.61285 18.7289ZM8.36501 5.38917L14.152 8.60464C14.3118 8.69347 14.4449 8.82339 14.5376 8.98095C14.6303 9.13852 14.6791 9.31799 14.6791 9.50079C14.6791 9.68359 14.6303 9.86306 14.5376 10.0206C14.4449 10.1782 14.3118 10.3081 14.152 10.3969L8.36501 13.6124C8.17763 13.7166 7.96628 13.77 7.75192 13.7673C7.53755 13.7646 7.3276 13.706 7.14287 13.5972C6.95814 13.4884 6.80504 13.3332 6.69874 13.1471C6.59243 12.9609 6.53662 12.7502 6.53682 12.5358V6.46578C6.53662 6.25139 6.59243 6.04068 6.69874 5.85451C6.80504 5.66833 6.95814 5.51317 7.14287 5.40438C7.3276 5.29559 7.53755 5.23696 7.75192 5.23429C7.96628 5.23162 8.17763 5.28501 8.36501 5.38917Z" fill="white"/>
</svg>
