<svg width="25" height="24" viewBox="0 0 25 24" fill="none" xmlns="http://www.w3.org/2000/svg">
<g clip-path="url(#clip0_349_825)">
<path d="M23.7706 9.41879C22.2196 6.89279 18.6916 2.65479 12.4996 2.65479C6.30756 2.65479 2.77956 6.89279 1.22856 9.41879C0.749091 10.1943 0.495117 11.088 0.495117 11.9998C0.495117 12.9115 0.749091 13.8053 1.22856 14.5808C2.77956 17.1068 6.30756 21.3448 12.4996 21.3448C18.6916 21.3448 22.2196 17.1068 23.7706 14.5808C24.25 13.8053 24.504 12.9115 24.504 11.9998C24.504 11.088 24.25 10.1943 23.7706 9.41879ZM22.0656 13.5338C20.7336 15.6998 17.7186 19.3448 12.4996 19.3448C7.28056 19.3448 4.26556 15.6998 2.93356 13.5338C2.6487 13.0728 2.49781 12.5417 2.49781 11.9998C2.49781 11.4579 2.6487 10.9267 2.93356 10.4658C4.26556 8.29979 7.28056 4.65479 12.4996 4.65479C17.7186 4.65479 20.7336 8.29578 22.0656 10.4658C22.3504 10.9267 22.5013 11.4579 22.5013 11.9998C22.5013 12.5417 22.3504 13.0728 22.0656 13.5338Z" fill="white"/>
<path d="M12.5 7C11.5111 7 10.5444 7.29324 9.72215 7.84265C8.89991 8.39206 8.25904 9.17295 7.8806 10.0866C7.50217 11.0002 7.40315 12.0055 7.59608 12.9755C7.789 13.9454 8.26521 14.8363 8.96447 15.5355C9.66373 16.2348 10.5546 16.711 11.5246 16.9039C12.4945 17.0969 13.4998 16.9978 14.4134 16.6194C15.327 16.241 16.1079 15.6001 16.6574 14.7779C17.2068 13.9556 17.5 12.9889 17.5 12C17.4984 10.6744 16.9711 9.40356 16.0338 8.46622C15.0964 7.52888 13.8256 7.00159 12.5 7ZM12.5 15C11.9067 15 11.3266 14.8241 10.8333 14.4944C10.3399 14.1648 9.95543 13.6962 9.72836 13.1481C9.5013 12.5999 9.44189 11.9967 9.55765 11.4147C9.6734 10.8328 9.95912 10.2982 10.3787 9.87868C10.7982 9.45912 11.3328 9.1734 11.9147 9.05764C12.4967 8.94189 13.0999 9.0013 13.6481 9.22836C14.1962 9.45542 14.6648 9.83994 14.9944 10.3333C15.3241 10.8266 15.5 11.4067 15.5 12C15.5 12.7957 15.1839 13.5587 14.6213 14.1213C14.0587 14.6839 13.2957 15 12.5 15Z" fill="white"/>
</g>
<defs>
<clipPath id="clip0_349_825">
<rect width="24" height="24" fill="white" transform="translate(0.5)"/>
</clipPath>
</defs>
</svg>
